<svg xmlns="http://www.w3.org/2000/svg" width="57" height="49"><path data-name="Forma 1" d="M54.149 30.29v-4.45a2.606 2.606 0 00.618-.1 2.982 2.982 0 002.013-1.87 3.733 3.733 0 00.212-1.46 3.864 3.864 0 00-3.957-3.56h-.069a25.306 25.306 0 00-48.937 0H3.96a3.864 3.864 0 00-3.956 3.56 3.733 3.733 0 00.212 1.46 2.978 2.978 0 002.013 1.87 2.622 2.622 0 00.62.1v4.45a3.743 3.743 0 000 7.27v5.78a5.682 5.682 0 005.7 5.66h39.9a5.682 5.682 0 005.7-5.66v-5.78a3.743 3.743 0 000-7.27zM28.5 1.88a23.424 23.424 0 0122.518 16.97H5.982A23.424 23.424 0 0128.5 1.88zM2.761 23.94a1.113 1.113 0 01-.752-.7 1.817 1.817 0 01-.105-.73 2.009 2.009 0 012.058-1.78h49.076a2.009 2.009 0 012.058 1.78 1.834 1.834 0 01-.105.73 1.113 1.113 0 01-.752.7 1.6 1.6 0 01-1.011-.08l-.081-.03a1.459 1.459 0 01-.272-.16l-.04-.03c-.008 0-.017-.01-.025-.01a5.464 5.464 0 00-.537-.36c-.049-.03-.1-.05-.15-.08a6.234 6.234 0 00-.6-.27 4.949 4.949 0 00-2.641-.21 4.643 4.643 0 00-3.159 2.27 2.773 2.773 0 01-2.359 1.4h-.006a3.882 3.882 0 01-.481-.05 3.034 3.034 0 01-2.169-1.39 4.5 4.5 0 00-.372-.51 4.289 4.289 0 00-.386-.42.16.16 0 01-.034-.04 4.874 4.874 0 00-3.321-1.34c-.015 0-.03-.01-.045-.01h-.132a4.646 4.646 0 00-4 2.36c-.493.88-2.38 1.4-3.92 1.4a6.557 6.557 0 01-.767-.04c-.031 0-.063-.01-.095-.01a6.285 6.285 0 01-2.43-.75 1.822 1.822 0 01-.628-.6 4.646 4.646 0 00-4-2.36h-.123c-.114 0-.224.01-.335.02a1.7 1.7 0 00-.226.01c-.147.02-.291.05-.435.08l-.183.03c-.142.04-.279.08-.417.13l-.181.06c-.126.05-.246.11-.366.17a1.721 1.721 0 00-.2.1 2.267 2.267 0 00-.306.19c-.074.05-.151.09-.223.14-.087.07-.168.14-.251.21s-.158.13-.232.19c-.075.08-.143.16-.214.23s-.15.16-.219.24c-.091.11-.171.23-.253.35-.041.06-.086.11-.124.17v.01a3.222 3.222 0 01-.431.53c-.036.04-.072.07-.109.11a2.6 2.6 0 01-.481.36 1.491 1.491 0 01-.183.1 2.974 2.974 0 01-.5.2l-.025.01c-.049.01-.1.03-.157.04a2.967 2.967 0 01-.6.07l-.019.01c-.079 0-.159-.01-.238-.01-.028-.01-.054-.01-.082-.02h-.023a2.78 2.78 0 01-2-1.37 4.645 4.645 0 00-3.159-2.27 5.1 5.1 0 00-1.1-.09 4.84 4.84 0 00-3.017 1.02 1.642 1.642 0 01-1.405.3zm36.86 6.49a.944.944 0 00-.671-.28h-13.3v-2.32c.065.02.131.03.2.05.184.05.367.11.55.15h.043a10.211 10.211 0 002.061.24h.162c1.577 0 4.528-.5 5.579-2.37a2.741 2.741 0 012.3-1.39 3.941 3.941 0 01.485.06 1.667 1.667 0 01.222.03 3 3 0 011.313.7c.007.01.016.01.023.02a2.951 2.951 0 01.513.62 4.9 4.9 0 004.29 2.33c.016 0 .032-.01.048-.01a4.692 4.692 0 004.109-2.36 2.744 2.744 0 012.422-1.39 3.925 3.925 0 01.484.06l.222.06a2.115 2.115 0 01.34.12c.059.03.118.05.175.08a2.932 2.932 0 01.477.29 3.45 3.45 0 00.59.38v4.65h-7.6a.944.944 0 00-.672.28.93.93 0 00-.278.66v6.6a1.9 1.9 0 01-3.8 0v-6.6a.939.939 0 00-.287-.66zM38 32.04v3.77H25.65v-3.77H38zm-19-1.89a.947.947 0 00-.95.95 1.9 1.9 0 01-3.8 0v-2.86a4.3 4.3 0 00.869-.18h.011a.5.5 0 00.107-.04h.008a3.657 3.657 0 00.442-.17h.013c.057-.03.114-.05.164-.08a.093.093 0 00.046-.02c.106-.05.209-.11.311-.17.028-.02.052-.03.083-.05l.143-.09.048-.03c.089-.07.174-.13.259-.2.031-.03.054-.04.087-.07l.149-.12c.014-.01.028-.03.042-.04.036-.03.07-.07.106-.1.068-.07.14-.14.222-.23a1.372 1.372 0 00.117-.13l.011-.01a5.06 5.06 0 00.415-.57 3.073 3.073 0 012.632-1.44 2.783 2.783 0 012.383 1.4 3.563 3.563 0 00.423.57 2.732 2.732 0 00.237.22c.058.06.106.11.169.17v13.66a1.9 1.9 0 01-3.8 0V31.1a.953.953 0 00-.947-.95zm-6.649-2.08v2.08h-7.6v-4.58a3.6 3.6 0 00.749-.45 2.986 2.986 0 011.7-.61 2.5 2.5 0 01.546.05A2.723 2.723 0 019.62 25.9a4.614 4.614 0 002.731 2.17zm-8.55 7.74a1.885 1.885 0 110-3.77h8.673c.037.12.081.25.131.37.023.06.038.12.064.18a3.355 3.355 0 00.324.59c.029.04.064.08.093.12a3.419 3.419 0 00.336.4c.056.06.117.11.176.17a2.806 2.806 0 00.341.27 2.211 2.211 0 00.217.15c.122.07.25.14.38.2a2.189 2.189 0 00.236.11c.147.05.3.1.45.14.073.01.144.04.219.05a3.723 3.723 0 002.613-.43v1.45H3.8zm48.448 7.53a3.8 3.8 0 01-3.8 3.78h-39.9a3.8 3.8 0 01-3.8-3.78v-5.65h13.3v2.83a3.8 3.8 0 007.6 0v-2.83H38a3.8 3.8 0 007.6 0h6.65v5.65zm.95-7.53h-7.6v-3.77h7.6a1.885 1.885 0 11.001 3.77zM23.079 4.99l-1.9 1.88a.945.945 0 101.343 1.33l1.9-1.88a.94.94 0 000-1.33.954.954 0 00-1.343 0zm23.47 40.24a.944.944 0 00.672-.28l1.9-1.88a.936.936 0 000-1.33.95.95 0 00-1.342 0l-1.9 1.88a.95.95 0 00-.279.67.91.91 0 00.279.66.942.942 0 00.67.28zm-34.87-4.44l-1.9 1.89a.939.939 0 00-.251.91.951.951 0 001.594.42l1.9-1.88a.939.939 0 000-1.33.956.956 0 00-1.343-.01zm16.149-28.26l-1.9 1.88a.945.945 0 101.344 1.33l1.9-1.88a.945.945 0 00-1.344-1.33zm5.144-5.66a.956.956 0 00-1.339.01.928.928 0 000 1.32l1.9 1.89a.965.965 0 001.339 0 .939.939 0 000-1.33zm-17.1 3.77a.954.954 0 00-1.338.01.926.926 0 000 1.32l1.9 1.89a.956.956 0 001.339-.01.927.927 0 000-1.32zm16.149 30.15a.954.954 0 00-1.338.01.94.94 0 000 1.33l1.9 1.88a.956.956 0 001.339 0 .939.939 0 000-1.33zm8.55-29.21a.956.956 0 00-1.339.01.939.939 0 000 1.33l1.9 1.88a.964.964 0 001.338 0 .938.938 0 000-1.33z" fill="#8eaa41" fill-rule="evenodd"/></svg>