<svg xmlns="http://www.w3.org/2000/svg" width="52" height="54"><path data-name="Forma 1" d="M20.96 25.27a1 1 0 001-1v-3.66c0-.15-.012-.3-.022-.45l.308.31a1 1 0 001.411 0l.323-.32c-.01.15-.022.3-.022.46v3.66a1 1 0 001 1h3.651a6.349 6.349 0 006.331-6.35v-3.66a1 1 0 00-1-1.01h-3.651a6.286 6.286 0 00-2.339.46 6.354 6.354 0 00-1.71-5.81l-2.582-2.59a.98.98 0 00-1.411 0L19.663 8.9a6.352 6.352 0 00-1.711 5.8 6.186 6.186 0 00-2.321-.45h-3.652a1 1 0 00-1 1v3.67a6.349 6.349 0 006.331 6.35h3.651zm11.978-9.01v2.66a4.346 4.346 0 01-4.334 4.35h-2.653v-2.66a4.346 4.346 0 014.334-4.35h2.653zm-11.866-5.95l1.876-1.88 1.877 1.88a4.366 4.366 0 010 6.15l-1.877 1.89-1.876-1.89a4.366 4.366 0 010-6.15zm-8.1 8.61v-2.66h2.653a4.347 4.347 0 014.334 4.35v2.66h-2.653a4.346 4.346 0 01-4.331-4.35zm12.976 14.14a3 3 0 00-3 3h2a1 1 0 112 0h2a3 3 0 00-2.997-3zm7.985 1a3 3 0 00-2.994 3h2a1 1 0 112 0h2a3 3 0 00-3.003-3zm7.5-3.81l3.445-12.96a1.055 1.055 0 00.034-.26 2 2 0 00-2-2h-2a1.984 1.984 0 00-1 .27V1a1 1 0 00-1-1H1a1 1 0 00-1 1v46.08a1 1 0 00.6.92l6.963 3.01a1.084 1.084 0 00.395.08c.006 0 .012-.01.018-.01s.008.01.012.01h15.286A18.6 18.6 0 0033.248 54 18.806 18.806 0 0052 35.18v-.1c0-2.99-6.161-4.29-10.562-4.83zm-.514-13.22h1.961l-3.674 13.83-.6 2.3a1 1 0 00.715 1.22 1.083 1.083 0 00.251.03 1 1 0 00.965-.75l.377-1.45c6.813.81 9.082 2.39 9.082 2.87 0 .98-5.7 3.3-16.755 3.3s-16.756-2.32-16.756-3.3 5.7-3.3 16.756-3.3c.591 0 1.157.02 1.732.04l-.187.74a1.007 1.007 0 00.725 1.22 1.019 1.019 0 00.244.03 1.007 1.007 0 00.967-.76l.489-1.95 3.671-13.81a1.053 1.053 0 00.042-.26zM6.956 48.56l-4.967-2.14V2h4.967v46.56zm13.664.52H8.988V2h28.941v18.66l-2.433 9.15q-1.1-.03-2.246-.03c-6.486 0-18.752 1.1-18.752 5.3v.1a18.907 18.907 0 00.1 1.96c.019.19.06.38.086.57.06.45.12.9.212 1.33.052.25.128.49.189.74.092.37.179.74.293 1.1.091.28.205.56.309.84.112.3.219.61.347.91s.282.6.429.89c.129.26.253.53.393.78.167.3.352.59.534.88.148.24.294.48.452.7.193.28.4.55.609.82.177.23.355.46.543.68.206.24.423.48.642.71s.447.46.68.69c.11.1.202.21.309.3zm12.626 2.91a16.642 16.642 0 01-9.236-2.79c-.126-.09-.248-.18-.372-.26a46.9 46.9 0 01-.838-.63l-.3-.24c-.355-.3-.7-.61-1.027-.94-.061-.06-.12-.12-.18-.19-.324-.33-.637-.67-.933-1.03l-.054-.06c-.319-.39-.62-.79-.9-1.21l-.1-.15a17.1 17.1 0 01-1.435-2.65 5.255 5.255 0 00-.1-.23c-.188-.45-.359-.92-.506-1.39-.019-.06-.034-.12-.052-.18-.13-.42-.241-.86-.336-1.3-.019-.09-.04-.18-.058-.27-.046-.23-.07-.46-.107-.69 3.833 1.99 11.752 2.6 16.534 2.6s12.7-.61 16.534-2.6a16.776 16.776 0 01-16.529 14.21z" fill="#4fb1c9" fill-rule="evenodd"/></svg>