<svg xmlns="http://www.w3.org/2000/svg" width="52.91" height="56.66"><path data-name="Forma 1" d="M11.28 11.26a4.226 4.226 0 003-1.25 1.004 1.004 0 00-1.42-1.42 2.239 2.239 0 01-3.16 0 1 1 0 00-1.41 0 1.008 1.008 0 000 1.42 4.2 4.2 0 002.99 1.25zm4.91 30.78a1.004 1.004 0 10-1.82.85l2.77 5.94a.993.993 0 00.91.58 1.059 1.059 0 00.42-.09 1.008 1.008 0 00.48-1.34zm25.34-.49a1 1 0 00-1.33.49l-2.77 5.94a1 1 0 00.91 1.43.993.993 0 00.91-.58l2.76-5.94a1.008 1.008 0 00-.48-1.34zm-8.57 2.03a1 1 0 00-1.14.84l-.93 5.94a1.013 1.013 0 00.84 1.15.808.808 0 00.16.01.989.989 0 00.98-.85l.93-5.94a1.007 1.007 0 00-.84-1.15zm-9.53 0a1.007 1.007 0 00-.84 1.15l.92 5.94a1.007 1.007 0 00.99.85.86.86 0 00.16-.01 1.006 1.006 0 00.83-1.15l-.92-5.94a1 1 0 00-1.14-.84zm4.77-23.3a41.866 41.866 0 0011.92-1.61 1.008 1.008 0 00-.58-1.93 39.654 39.654 0 01-11.35 1.53 1.005 1.005 0 00.01 2.01zM9.82 27.83a26.131 26.131 0 003.18 1.4.829.829 0 00.34.07 1.014 1.014 0 00.35-1.96 23.1 23.1 0 01-2.95-1.3 1 1 0 00-1.35.43 1.02 1.02 0 00.43 1.36zm12.04 3.46a50.392 50.392 0 0012.74-.07 1.003 1.003 0 00-.26-1.99 49.17 49.17 0 01-12.24.06.993.993 0 00-1.11.87 1.006 1.006 0 00.87 1.13zm17.21-1.9a1 1 0 00.96.74.842.842 0 00.27-.04 29.051 29.051 0 005.89-2.27 1.008 1.008 0 00.42-1.36 1 1 0 00-1.35-.42 27.337 27.337 0 01-5.49 2.11 1.009 1.009 0 00-.7 1.24zm13.84 2.14c0-2.33-1.25-4.57-3.63-6.51a6.088 6.088 0 00.1-1.13c0-2.96-2.04-5.72-5.78-7.82-.08-2.05-.7-8.64-4.9-12.49A11.311 11.311 0 0029.54.87a1.007 1.007 0 00-.8.55 1.034 1.034 0 00.05.98c.63 1.03 1.74 3.53 1.13 4.65a2.136 2.136 0 01-1.98.74 31.978 31.978 0 00-7.37.91 9.875 9.875 0 00-1.03-1.23 10.544 10.544 0 00-8.45-3.19A7.758 7.758 0 009.05 1.8C7.04.21 4.28-.33.83.2a1.007 1.007 0 00.31 1.99C4 1.75 6.24 2.15 7.8 3.37a5.7 5.7 0 011.24 1.39 7.7 7.7 0 00-2.81 1.79l-.92.92c-3.42 3.44-3 9.45.92 13.39a9.451 9.451 0 00.75.67 6.443 6.443 0 00-.47 2.36 6.1 6.1 0 00.11 1.13c-2.38 1.94-3.63 4.17-3.63 6.51a7.455 7.455 0 001.94 4.85l3.78 9.36.05.1c3.18 5.9 5.87 7.4 11.69 9.64a23.009 23.009 0 007.75 1.18 22.765 22.765 0 007.73-1.18c5.84-2.27 8.52-3.76 11.65-9.54l4.86-11.98h-.01a6.532 6.532 0 00.48-2.43zM6.73 8.9l.91-.92a5.818 5.818 0 012.21-1.37 5.371 5.371 0 01.15.71 1 1 0 001 .92h.08a1.007 1.007 0 00.91-1.09 5.136 5.136 0 00-.16-.9c.08 0 .15-.02.22-.02a8.72 8.72 0 016.08 2.67 7.4 7.4 0 011.12 1.45v.01a7.467 7.467 0 011.03 3.45c0 .04.01.09.01.14a6.7 6.7 0 01-.05 1.1c0 .04-.01.08-.01.12a7.526 7.526 0 01-.64 2.17l-.06.12a7.739 7.739 0 01-.56.96 1.47 1.47 0 01-.1.13 7.76 7.76 0 01-.74.89 7.961 7.961 0 01-.95.79.555.555 0 01-.08.06 8.322 8.322 0 01-1.04.61.142.142 0 00-.06.02 7.488 7.488 0 01-3.58.68.22.22 0 00-.08-.01 7.563 7.563 0 01-1.16-.18l-.11-.03A6.826 6.826 0 019.94 21a.106.106 0 01-.05-.02 7.546 7.546 0 01-1.11-.61h-.01a7.137 7.137 0 01-1.13-.94C4.5 16.28 4.09 11.55 6.73 8.9zm1.6 17.33a1 1 0 00.37-1.09 4.57 4.57 0 01-.19-1.25 4.171 4.171 0 01.2-1.24 2.14 2.14 0 00.22.1 9.343 9.343 0 001.66.59l.25.06c.17.04.34.07.51.1.1.01.2.03.3.04l.51.06c.09 0 .19.01.28.01.15.01.3.02.45.02a9.6 9.6 0 001.42-.11.5.5 0 01.12-.02c.21-.04.43-.08.64-.13.02-.01.04-.01.06-.02a9.222 9.222 0 001.98-.73.142.142 0 00.04-.02c.16-.08.32-.17.48-.26.09-.06.18-.11.26-.16.13-.09.26-.17.38-.26s.25-.18.38-.27c.09-.08.18-.14.27-.22.21-.18.42-.37.62-.57a8.545 8.545 0 00.84-.98 1.768 1.768 0 00.16-.22 9.4 9.4 0 001.19-2.26l.06-.18a9.323 9.323 0 00.48-2.47c.01-.1.01-.19.02-.28s.01-.2.01-.3a9.472 9.472 0 00-.28-2.27c-.01-.03-.01-.06-.02-.09a9.849 9.849 0 00-.42-1.3 30.851 30.851 0 016.38-.71c1.83-.02 3.08-.62 3.71-1.78.88-1.6.22-3.78-.42-5.22a8.907 8.907 0 016.1 2.26c4.25 3.89 4.27 11.54 4.27 11.62a.99.99 0 00.54.89c3.37 1.77 5.22 4.01 5.22 6.32a4.551 4.551 0 01-.18 1.25 1 1 0 00.36 1.09c1.53 1.14 3.35 2.98 3.35 5.29a4.689 4.689 0 01-.14 1.11c-.02-.01-.05-.01-.07-.02a4.2 4.2 0 00-.8-.28c-.04-.01-.07-.01-.1-.02a4.816 4.816 0 00-.86-.1h-.06a5.816 5.816 0 00-.92.08c-.06.01-.12.02-.19.03a7.307 7.307 0 00-.94.25c-.06.02-.12.05-.18.07a8.772 8.772 0 00-.97.41c-.02.01-.05.02-.07.03-.34.18-.69.38-1.04.6-.08.05-.15.09-.22.14-.34.23-.69.48-1.04.75-.07.05-.14.11-.21.16-.37.3-.74.61-1.12.96-2.66-1.82-6.37-.61-9.15 1.8a7.5 7.5 0 00-9.14 0c-.21-.18-.42-.35-.64-.52l-.2-.14c-.16-.12-.33-.24-.5-.35-.07-.04-.13-.09-.2-.13-.23-.14-.46-.28-.7-.41-.24-.13-.48-.24-.72-.35-.07-.03-.13-.06-.2-.09-.19-.08-.37-.15-.55-.21a1.723 1.723 0 00-.21-.07 6.676 6.676 0 00-.73-.21 6.6 6.6 0 00-.73-.13 1.355 1.355 0 00-.2-.02c-.19-.02-.37-.03-.55-.04-.04 0-.09-.01-.13-.01-.02 0-.05.01-.07.01a5.572 5.572 0 00-1.41.19l-.18.06a3.024 3.024 0 00-.5.19c-.06.02-.12.05-.19.08a4.332 4.332 0 00-.62.36c-.24-.22-.48-.43-.71-.63-.08-.06-.15-.12-.23-.18-.16-.13-.32-.26-.48-.38-.08-.07-.17-.13-.26-.2l-.43-.31c-.09-.06-.19-.12-.28-.18-.13-.09-.27-.18-.41-.26-.09-.05-.18-.11-.27-.16-.14-.08-.27-.15-.41-.22-.09-.05-.18-.1-.26-.14-.14-.07-.27-.12-.41-.18a2.718 2.718 0 00-.25-.11c-.14-.06-.28-.11-.41-.16-.08-.02-.15-.05-.23-.07-.16-.05-.31-.09-.47-.13-.05-.01-.1-.03-.15-.04a4.555 4.555 0 00-.61-.1.41.41 0 00-.11-.01 3.829 3.829 0 00-.47-.03c-.07 0-.14.01-.2.01-.13 0-.25.01-.37.02l-.21.03-.33.06-.21.06a2.811 2.811 0 00-.31.1 1.192 1.192 0 00-.2.08c-.1.05-.2.09-.3.15a1.738 1.738 0 00-.19.1.929.929 0 01-.1.05 4.729 4.729 0 01-.2-1.34c0-2.32 1.82-4.16 3.34-5.3zm37.46 18.8c-2.82 5.19-5.02 6.42-10.58 8.57-3.52 1.37-10.48 1.37-14.04 0-5.54-2.13-7.75-3.36-10.63-8.67l-3.81-9.44-.39-.95c2.48-1.41 6.52 2.39 7.36 3.22l.7.69.71-.69c2.21-2.2 5.91-.13 7.86 1.8l.71.7.7-.7a5.5 5.5 0 017.77 0l.7.7.71-.7c1.78-1.78 5.04-3.68 7.25-2.22a3.274 3.274 0 01.51.41l.71.71.7-.71h.01c.11-.11.27-.27.48-.46a.265.265 0 01.06-.05c.08-.08.17-.16.27-.25.05-.04.09-.08.14-.12.08-.07.16-.14.25-.21l.19-.16c.08-.07.16-.13.24-.2l.24-.18.24-.18c.09-.07.18-.13.27-.19a2.2 2.2 0 01.25-.17l.28-.19c.09-.06.17-.1.26-.16s.2-.11.3-.17.17-.1.26-.14.2-.11.3-.15.19-.08.28-.12a1.877 1.877 0 01.3-.12c.09-.04.19-.07.28-.1s.2-.06.29-.08.21-.04.31-.06a2.024 2.024 0 01.26-.04c.11-.01.23-.01.35-.01a1.205 1.205 0 01.19 0 2.239 2.239 0 011.01.3z" fill="#f2374d" fill-rule="evenodd"/></svg>