<svg xmlns="http://www.w3.org/2000/svg" width="17.031" height="16.72"><path d="M9.166 7.54v-.03c0 .01-.012.02-.017.03h.017zM15.782 0H1.263A1.225 1.225 0 00.005 1.2v14.32a1.232 1.232 0 001.258 1.2h14.519a1.233 1.233 0 001.26-1.2V1.2a1.226 1.226 0 00-1.26-1.2zM5.169 13.99H2.595V6.44h2.574v7.55zM3.882 5.41h-.017a1.317 1.317 0 01-1.422-1.3 1.456 1.456 0 111.439 1.3zm10.566 8.58h-2.574V9.95c0-1.01-.372-1.7-1.3-1.7a1.394 1.394 0 00-1.32.92 1.648 1.648 0 00-.085.61v4.21H6.596s.033-6.84 0-7.55h2.573v1.07a2.572 2.572 0 012.32-1.24c1.692 0 2.962 1.08 2.962 3.4v4.32z" fill="#535353" fill-rule="evenodd"/></svg>