<svg xmlns="http://www.w3.org/2000/svg" width="58.563" height="52.84"><path data-name="Forma 1" d="M36.596 18.06a1 1 0 11-1 1 1 1 0 011-1zm5.232-2.64a1 1 0 11-1 1 1 1 0 011-1zm-1.315 2.51a1 1 0 11-1 1 1 1 0 011-1zm-26.229-4.62a1 1 0 11-1 1 1 1 0 011-1zm5.849-1.32a1 1 0 11-1 1 1 1 0 011-1zm-3.233-1a1 1 0 11-1 1 1 1 0 011-1zm-4.873 18.33a1 1 0 11-1 1 1 1 0 011-1zm3.26-2.32a1 1 0 11-1 1 1 1 0 011-1zm1.613 2a1 1 0 11-1 .99.994.994 0 011-.99zm9.346-19.95a.7.7 0 01.531.09.562.562 0 01.26.35 2.659 2.659 0 003.162 2 .745.745 0 01.532.08.6.6 0 01.26.36 2.53 2.53 0 001.166 1.65 2.673 2.673 0 001.427.4 2.748 2.748 0 00.568-.06.992.992 0 00.778-1.17 1.007 1.007 0 00-1.186-.78.7.7 0 01-.531-.09.533.533 0 01-.259-.35 2.511 2.511 0 00-1.167-1.65 2.729 2.729 0 00-2-.35.642.642 0 01-.792-.44 2.542 2.542 0 00-1.167-1.65 2.728 2.728 0 00-2-.34 1 1 0 00-.778 1.18 1.008 1.008 0 001.194.77zm3.967 14.11a1 1 0 00-.982 1.02.173.173 0 01-.112.19 2.149 2.149 0 00-2.073 2.23.174.174 0 01-.112.19 2.082 2.082 0 00-1.508.69 2.225 2.225 0 00-.565 1.54 1 1 0 001 .97h.023a1 1 0 00.98-1.02.18.18 0 01.112-.19 2.15 2.15 0 002.074-2.23.175.175 0 01.111-.19 2.149 2.149 0 002.074-2.23 1.006 1.006 0 00-1.022-.97zm-7.184-3.64a.643.643 0 01-.824.38 2.59 2.59 0 00-2.026-.01 2.71 2.71 0 00-1.44 1.42.991.991 0 00.514 1.31.971.971 0 00.4.09 1.015 1.015 0 00.919-.6.743.743 0 01.379-.38.554.554 0 01.443 0 2.665 2.665 0 003.468-1.41.747.747 0 01.379-.38.6.6 0 01.443 0 2.55 2.55 0 002.027.01 2.71 2.71 0 001.44-1.42.991.991 0 00-.514-1.31 1.01 1.01 0 00-1.322.51.712.712 0 01-.379.38.589.589 0 01-.443.01 2.553 2.553 0 00-2.028-.02 2.739 2.739 0 00-1.436 1.42zm34.633-3.43c-.007-.02-.022-.03-.03-.05a18.763 18.763 0 00-1.062-3.1 1.448 1.448 0 00-.064-.14c-2.3-5.01-6.588-8.19-11.768-10.13-.032-.01-.055-.04-.09-.05a.187.187 0 00-.073-.01A40.415 40.415 0 0037.56.79c-.006 0-.009-.01-.015-.01a1.074 1.074 0 00-.395-.05A73.042 73.042 0 0022.088.08h-.036c-.021 0-.039.01-.061.01a110.852 110.852 0 00-11.177 1.17 5.643 5.643 0 00-4.757 5.02v.01c0 .05-.02.1-.024.15L4.527 25.57C2.701 26.73-1.152 29.86.311 35c.516 1.81 1.36 2.88 2.508 3.16a.572.572 0 01.5.55 85.629 85.629 0 00-1.1 9.68 4.052 4.052 0 001.262 3.19 5.722 5.722 0 003.793 1.26c.315 0 .532-.02.6-.02.354-.03 3.483-.29 4.516-2.44.629-1.31.3-2.91-.974-4.74l16.443-6.62h.01a4.194 4.194 0 00.621.25c.034.01.066.03.1.04a3.988 3.988 0 00.789.13 3.793 3.793 0 00.674 0 .742.742 0 00.148-.01 4.939 4.939 0 00.551-.06l.135-.03a4.14 4.14 0 00.615-.16.06.06 0 00.04-.01 4.1 4.1 0 001.843-1.2 3.942 3.942 0 00.467-.69.03.03 0 00.01-.02 4.419 4.419 0 00.332-.78c0-.01.007-.01.01-.02l18.833-7.59a8.671 8.671 0 004.632-4.18c1.175-2.39 1.169-5.28-.007-8.6zm-2.513 2.04q-.525-1.14-1.139-2.25l1.188-1.01a17.4 17.4 0 01.7 2.49 3.722 3.722 0 01-.377 2.5 3.839 3.839 0 00-.372-1.73zm-.788-5.17l-1.4 1.2a21.186 21.186 0 00-2.606-3.22l1.221-1.76a15.407 15.407 0 012.785 3.78zM44.224 6.71l.671-1.84a21.338 21.338 0 015.171 2.97l-1.2 1.74a21.374 21.374 0 00-4.642-2.87zm-6.93-2.18l.587-1.68a38.018 38.018 0 015.138 1.31l-.645 1.77a33.093 33.093 0 00-5.08-1.4zm-7.218-.83V2.01c1.94.08 3.887.25 5.8.52l-.582 1.66a49.528 49.528 0 00-5.218-.49zm-3.232-1.76c.407 0 .816 0 1.226.01v1.68c-1.574-.03-3.248 0-5.014.08V2.03q1.86-.09 3.788-.09zM15.033 4.37V2.7a95.12 95.12 0 016.017-.56v1.67q-2.839.18-6.017.56zm-3.906-1.13c.593-.1 1.234-.19 1.9-.28v1.65c-1.488.19-3.048.42-4.648.68a3.641 3.641 0 012.748-2.05zm-.542 46.27c-.448.94-2.249 1.27-2.883 1.32a4.249 4.249 0 01-2.861-.72 2.076 2.076 0 01-.609-1.69 83.916 83.916 0 011.07-9.4 2.5 2.5 0 00-1.993-2.79 2.508 2.508 0 01-1.067-1.77c-1.174-4.13 2.227-6.58 3.743-7.44l.46-.26L7.972 7.37a136.884 136.884 0 0114.05-1.64h.031c.018 0 .033-.01.051-.01a64.3 64.3 0 0113.49.45.129.129 0 00.051.03.956.956 0 00.33.06c.032 0 .062-.01.094-.01a29.756 29.756 0 016.323 1.73.8.8 0 00.246.15.708.708 0 00.2.03 18.931 18.931 0 015.381 3.41.984.984 0 00.277.28c.023.02.048.02.072.04a22.351 22.351 0 014.753 7.06c.886 1.93-1.669 3.36-1.961 3.52l-19.009 7.85-.123.49a3.577 3.577 0 00-.013 1.65 7.621 7.621 0 01.19 2.94l-.023.12a2.237 2.237 0 01-1.118 1.61 3.166 3.166 0 01-1.469.32h-.28a1.807 1.807 0 01-.483-.1c-.014 0-.028-.01-.042-.01a1.472 1.472 0 01-.4-.23l-.07-.05a.994.994 0 01-.166-.17 4.407 4.407 0 01-.566-3.06l.241-1.72-16.314 6.74c-1.868.72-2.968 1.7-3.362 3-.418 1.37.027 2.96 1.364 4.85.607.85 1.242 2.03.868 2.81zm-.306-7.09c.2-.66.931-1.23 2.192-1.72l13.292-5.49a5.872 5.872 0 00.6 2.26l-15.922 6.41a2.3 2.3 0 01-.162-1.46zm45.605-18.64A6.767 6.767 0 0152.345 27l-17.871 7.2a11.915 11.915 0 00-.3-2.18 1.569 1.569 0 01-.039-.27l20.332-8.4a5.543 5.543 0 001.966-1.4 6.422 6.422 0 01-.549 1.83zM14.073 34.1c4.24 0 7.689-2.73 7.689-6.08a3.394 3.394 0 00-1.849-3.36 6.594 6.594 0 00-2.831-.44c-1.578 0-9.7 2.01-9.7 5.79.005 4.09 3.104 4.09 6.691 4.09zm3.017-7.89h.012a4.915 4.915 0 011.941.25c.214.1.713.34.713 1.56 0 2.22-2.6 4.09-5.683 4.09-4.68 0-4.68-.45-4.68-2.1 0-1.77 6.151-3.8 7.697-3.8zm-.691-8.28c4.24 0 7.689-2.73 7.689-6.09a3.388 3.388 0 00-1.849-3.35 6.633 6.633 0 00-2.82-.45h-.012c-1.577 0-9.694 2.02-9.694 5.8 0 4.09 3.099 4.09 6.686 4.09zm3.016-7.89h.013a4.918 4.918 0 011.941.25c.214.1.713.34.713 1.56 0 2.21-2.6 4.09-5.683 4.09-4.681 0-4.681-.45-4.681-2.1 0-1.77 6.15-3.8 7.697-3.8zm12.667 8.74c0 4.09 3.1 4.09 6.686 4.09 4.24 0 7.689-2.73 7.689-6.08a3.367 3.367 0 00-1.85-3.35 6.482 6.482 0 00-2.82-.45h-.011c-1.578 0-9.694 2.01-9.694 5.79zm9.7-3.8h.012a4.935 4.935 0 011.944.25c.214.1.713.34.713 1.56 0 2.21-2.6 4.09-5.683 4.09-4.681 0-4.681-.45-4.681-2.1 0-1.77 6.15-3.8 7.695-3.8z" fill="#ffc243" fill-rule="evenodd"/></svg>