<svg xmlns="http://www.w3.org/2000/svg" width="51.469" height="51.31"><path data-name="Forma 1" d="M49.26 13.85C47.427 9.3 44.009 3.39 38.124 1.04 33.807-.69 28.805-.28 23.257 2.27c-6.936 3.18-9.2 8.88-6.386 16.06a6.58 6.58 0 01-.889 6.5 6.508 6.508 0 01-6.065 2.45c-3.768-.5-6.659.35-8.365 2.46-1.307 1.62-2.463 4.7-.557 10.22l.036.09a20.848 20.848 0 0011.921 10.17 23.984 23.984 0 005.564.94l.291.02c.612.06 1.669.13 3.041.13a37.592 37.592 0 0014.169-2.67 23.79 23.79 0 0014.708-17.19 28.824 28.824 0 00-1.465-17.6zm-.467 17.13a21.867 21.867 0 01-13.536 15.81 36.363 36.363 0 01-16.274 2.4l-.291-.02a22.709 22.709 0 01-5.115-.85 19.231 19.231 0 01-10.723-9.07c-1.234-3.6-1.149-6.53.239-8.25 1.248-1.54 3.518-2.14 6.563-1.74a8.46 8.46 0 007.893-3.2 8.58 8.58 0 001.169-8.47c-2.44-6.21-.636-10.75 5.363-13.5 5.037-2.31 9.515-2.71 13.308-1.19 5.233 2.09 8.341 7.52 10.029 11.7a26.826 26.826 0 011.376 16.38zM33.231 18.53a5 5 0 10-4.967-5 4.994 4.994 0 004.967 5zm0-8a3 3 0 11-2.98 3 2.991 2.991 0 012.98-3zm14.232 13.45a25.864 25.864 0 00-1.874-8.55C41.276 4.74 34.189 1.49 24.575 5.9c-1.925.88-7.783 3.57-4.615 11.63a9.229 9.229 0 01-9.793 12.62c-2.618-.35-4.582.17-5.488 1.46-.961 1.36-.952 3.71.026 6.63l.058.14a17.147 17.147 0 009.625 8.04 20.723 20.723 0 004.675.77l.281.02c.843.08 1.747.12 2.688.12 18.768 0 23.616-11.75 24.829-16.8a23.6 23.6 0 00.61-6.37.836.836 0 00-.008-.18zM25.399 7.72a16.733 16.733 0 016.889-1.74c4.871 0 8.727 3.43 11.46 10.2a24.305 24.305 0 011.587 6.15c-4.45-1.26-12.331 2.67-13.647 3.35-5.942 1.9-8.694-.83-9.449-1.79a11.307 11.307 0 00-.432-7.09c-2.179-5.55.593-7.71 3.592-9.08zm-4.71 19.6a12.827 12.827 0 00.785-1.37 9.22 9.22 0 006.411 2.38 14.526 14.526 0 004.492-.77.952.952 0 00.153-.07c3.913-2.05 10.695-4.54 12.972-2.92a21.481 21.481 0 01-.571 5.49l-.032.12c-2.164-.61-7.412-1.23-16.072 2.95-2.962 1.43-5.519 1.71-7.6.83a7.514 7.514 0 01-3.635-3.59 11.364 11.364 0 003.102-3.05zm-1.167 17.9l-.282-.02a19.226 19.226 0 01-4.229-.68 15.324 15.324 0 01-8.447-6.99c-.852-2.58-.7-4.15-.264-4.77s1.826-.86 3.608-.63a11.108 11.108 0 005.7-.73c.059.33.122.7.179 1.09a12.739 12.739 0 005.293 8.6c2.044 1.41 3.426 2.69 3.489 4.15-.818.05-1.658.09-2.542.09s-1.722-.04-2.505-.11zm7.039-.16c-.16-2.71-2.819-4.56-4.348-5.62a10.617 10.617 0 01-3.842-4.91 8.257 8.257 0 002.065 1.27c2.632 1.12 5.743.83 9.251-.86 8.136-3.93 12.892-3.32 14.631-2.84-1.652 4.57-6.067 11.52-17.757 12.96z" fill="#ff6262" fill-rule="evenodd"/></svg>