<svg xmlns="http://www.w3.org/2000/svg" width="23.156" height="15.75"><path d="M18.521 2.6a.147.147 0 01-.044-.04 4.23 4.23 0 00-3.053-1.06l-.036-.08a.021.021 0 01.021-.01A3.8 3.8 0 0017.286.7a.234.234 0 00-.246-.34 5.892 5.892 0 00-1.465.33c.556-.33.773-.57.65-.69a3.027 3.027 0 00-1.762.79.864.864 0 00.261-.6 5.387 5.387 0 00-.78.61 11.821 11.821 0 00-1.133 1.35l-.015.04a11.433 11.433 0 00-1.573 3.39l-.116.08-.021.02a5.935 5.935 0 00-1.624-1.31 20.376 20.376 0 00-2.671-1.31 23.728 23.728 0 00-3.4-1.33 3.137 3.137 0 001.87 2.83v.03a4.2 4.2 0 00-1.278.17c.079 1.11.924 1.87 2.526 2.29l-.007.02a1.9 1.9 0 00-1.552.59 2.814 2.814 0 002.808 1.38 2.044 2.044 0 00-.613.42.837.837 0 00-.246.85 1.579 1.579 0 001.574.67l.043.05a.037.037 0 01-.022.02 6.051 6.051 0 01-4.786 1.72l-.028.02a6.3 6.3 0 01-3.681-1.53 11.279 11.279 0 005.269 3.85 13.339 13.339 0 007.485.17h.047a11.889 11.889 0 006.157-3.99 7.763 7.763 0 001.466-3.02 3.122 3.122 0 002.735-1.02l-.014-.02a5.876 5.876 0 01-2.462-.13v-.13h.008c1.335-.14 2.122-.54 2.375-1.2a4.025 4.025 0 01-2.758.03 5.393 5.393 0 00-1.786-3.2z" fill="#535353" fill-rule="evenodd"/></svg>