<svg xmlns="http://www.w3.org/2000/svg" width="59" height="56"><path data-name="Forma 1" d="M24.21 14.82a.922.922 0 00.36.07 1.018 1.018 0 00.94-.63.993.993 0 00-.57-1.29 2.864 2.864 0 01-1.65-3.73 2.924 2.924 0 013.77-1.64 1 1 0 001.3-.56.985.985 0 00-.57-1.29 4.948 4.948 0 00-6.37 2.77 4.843 4.843 0 002.79 6.3zm29.27 3.13a.994.994 0 00-.52 1.31 2.827 2.827 0 01.05 2.21 2.877 2.877 0 01-1.55 1.59 2.92 2.92 0 01-2.23.04 2.861 2.861 0 01-1.6-1.53 1.02 1.02 0 00-1.33-.51.989.989 0 00-.51 1.31 4.946 4.946 0 004.51 2.92 5 5 0 001.97-.41 4.883 4.883 0 002.61-2.69 4.782 4.782 0 00-.08-3.73 1.014 1.014 0 00-1.32-.51zM39.45 15.2a.976.976 0 00-.37 1.35 2.893 2.893 0 01-3.32 4.19A2.854 2.854 0 0134 19.39a1.011 1.011 0 00-1.37-.38.99.99 0 00-.38 1.35 4.954 4.954 0 006.71 1.85 4.844 4.844 0 002.32-2.94 4.79 4.79 0 00-.46-3.7 1.006 1.006 0 00-1.37-.37zm-8.56 1.79a4.967 4.967 0 006.57-2.26.993.993 0 00-.47-1.33 1.009 1.009 0 00-1.34.46 2.931 2.931 0 01-3.89 1.34 2.866 2.866 0 01-1.35-3.85 1 1 0 00-.47-1.33 1.009 1.009 0 00-1.34.46 4.855 4.855 0 002.29 6.51zm-7.47 5.65a5 5 0 001.97.41 4.968 4.968 0 004.51-2.92.994.994 0 00-.52-1.31 1.006 1.006 0 00-1.32.51 2.849 2.849 0 01-1.61 1.53 2.921 2.921 0 01-2.23-.04 2.874 2.874 0 01-1.5-3.79.99.99 0 00-.52-1.31 1.006 1.006 0 00-1.32.51 4.85 4.85 0 002.54 6.41zm12.66-10.45c.16.01.32.02.48.02a4.939 4.939 0 003.12-1.11 4.847 4.847 0 00.67-6.86 1.022 1.022 0 00-1.42-.13 1 1 0 00-.13 1.4 2.886 2.886 0 01-2.53 4.7 2.921 2.921 0 01-1.97-1.03 1 1 0 00-1.41-.14.989.989 0 00-.14 1.4 4.956 4.956 0 003.33 1.75zM15.5 21.16a1 1 0 00-.55-1.3 1.014 1.014 0 00-1.31.55A2.936 2.936 0 019.84 22a2.871 2.871 0 01-1.6-3.76 1 1 0 00-1.86-.74 4.845 4.845 0 002.71 6.34 4.938 4.938 0 006.41-2.68zm42.02-2.84a5.114 5.114 0 00-1.32-5.25 5.36 5.36 0 00-3.8-1.51 4.523 4.523 0 00-1.09-1.66 4.831 4.831 0 00-4.76-1.12c0-.09.02-.17.02-.26a7.232 7.232 0 00-9.42-6.68 6.129 6.129 0 00-9.1.36 6.915 6.915 0 00-3.04-.7 6.743 6.743 0 00-6.82 6.65v.04a6.674 6.674 0 00-2.59 2.13 147.6 147.6 0 00-10.93 2.36 5.139 5.139 0 00-1.57 3.7A4.621 4.621 0 000 20.72 4.54 4.54 0 001.4 24a4.76 4.76 0 001.82 1.11 5.419 5.419 0 001.65 3.85 5.623 5.623 0 003.89 1.59 4.005 4.005 0 001.21 2.57 4.209 4.209 0 002.95 1.18 4.4 4.4 0 001.19-.18c4.13.11 9.75 9.09 10.49 19.58a2.5 2.5 0 002.5 2.3h5.02a2.513 2.513 0 002.51-2.21l.07-.7c1.38-12.6 4.25-19.08 8.52-19.27a5.715 5.715 0 002.7.7 5.64 5.64 0 003.96-1.6 4.94 4.94 0 00.95-1.23 4.824 4.824 0 003.34-1.34 4.562 4.562 0 001.38-3.58 5.437 5.437 0 001.88-1.18 5.1 5.1 0 00.09-7.27zM19.56 9.77a.983.983 0 00.67-1.06 5.3 5.3 0 01-.03-.57 4.743 4.743 0 014.81-4.66 4.9 4.9 0 012.77.86 1.022 1.022 0 00.8.15 1.057 1.057 0 00.65-.48 4.037 4.037 0 013.54-2.03 4.078 4.078 0 013.27 1.62 1.009 1.009 0 001.21.32 5.285 5.285 0 012.11-.44 5.125 5.125 0 015.2 5.04 4.822 4.822 0 01-.43 1.97v.01l-.08.18v.02c-.02.04-.02.07-.04.11a1.221 1.221 0 00-.06.26v.06a1.032 1.032 0 00.04.3c.01.03.04.06.05.09a1.414 1.414 0 00.13.24 1.126 1.126 0 00.29.24 1.616 1.616 0 01.88 1.42 1.642 1.642 0 01-.9 1.44 1 1 0 00-.51.63.981.981 0 00.13.78 3.051 3.051 0 01.5 1.67 3.164 3.164 0 01-1.98 2.91.986.986 0 00-.56 1.27 3.025 3.025 0 01.21 1.1 3.215 3.215 0 01-3.26 3.16 2.573 2.573 0 01-.55-.06.425.425 0 01-.11-.02 3.207 3.207 0 01-.53-.15 3.251 3.251 0 01-1.62-1.35 1.031 1.031 0 00-.85-.48.986.986 0 00-.86.45 5.081 5.081 0 01-2.19 1.87c-.13.06-.26.12-.39.17-.07.02-.14.04-.2.06-.13.04-.25.08-.38.11a2.558 2.558 0 01-.27.05 3.431 3.431 0 01-.34.06 5.653 5.653 0 01-.59.04c-.15 0-.3-.01-.45-.02a.757.757 0 00-.15-.01c-.16-.02-.32-.05-.49-.08-.03-.01-.06-.01-.09-.02a5.259 5.259 0 01-.53-.15c-.01 0-.03-.01-.04-.01a5.253 5.253 0 01-.55-.22A5.2 5.2 0 0125.81 25a1 1 0 00-.67-.4.708.708 0 00-.14-.01 1.014 1.014 0 00-.61.2 4.138 4.138 0 01-.84.48h-.02a4.055 4.055 0 01-.79.26h-.03a3.7 3.7 0 01-.8.09 3.975 3.975 0 01-4.04-3.9 3.805 3.805 0 01.77-2.29 1 1 0 00-.24-1.42 4.606 4.606 0 01-2.08-3.83 4.913 4.913 0 01.05-.67l.03-.17a3.894 3.894 0 01.12-.49c.02-.06.04-.12.06-.17a2.906 2.906 0 01.22-.51.3.3 0 01.04-.1 4.788 4.788 0 012.72-2.3zm14.33 18.26a7.287 7.287 0 001.41-1.13 5.46 5.46 0 001.45.96c.03.03.06.07.1.11a3.687 3.687 0 00.53.43 30.3 30.3 0 00-3.27 4.74 34.969 34.969 0 00-.22-5.11zm-6.52 10.45a29.891 29.891 0 00-5.45-8.34 3.234 3.234 0 00.88-.59 2.924 2.924 0 00.88-2.01 6.891 6.891 0 00.69-.46c.14-.06.29-.12.42-.19a7.174 7.174 0 001.7 1.3 41.326 41.326 0 01.88 10.29zM11.38 31.7a1.981 1.981 0 01-.56-1.99 1 1 0 00-.97-1.25.82.82 0 00-.22.02 3.66 3.66 0 01-3.35-.94 3.394 3.394 0 01-1-3.04.949.949 0 00-.19-.76 1.023 1.023 0 00-.68-.4 2.72 2.72 0 01-1.6-.75 2.586 2.586 0 010-3.74 2.7 2.7 0 011.52-.74A1.054 1.054 0 005 17.7a1.015 1.015 0 00.16-.76 3.19 3.19 0 01.91-2.85 3.413 3.413 0 013.82-.61 1.016 1.016 0 001.22-.28 2.443 2.443 0 01.27-.29 3.375 3.375 0 013.27-.82c-.01.03-.01.06-.02.09q-.105.36-.18.72l-.06.26a6.8 6.8 0 00-.08 1.02 6.577 6.577 0 002.2 4.88 5.675 5.675 0 00-.65 2.65q0 .3.03.6l.03.2.06.38c.02.07.04.15.06.23a2.988 2.988 0 00.09.32 2.34 2.34 0 00.09.24c.03.1.07.2.11.3a1.627 1.627 0 00.11.23c.05.1.09.19.14.28s.09.15.14.23.1.17.15.25a1.768 1.768 0 01.16.22c.06.07.12.15.18.23s.13.14.19.2.13.15.2.22.13.12.2.18.14.13.22.2c.07.05.14.11.22.16s.15.12.23.18.16.1.24.14.17.1.25.15.17.09.25.13.18.09.27.12.17.07.26.11.19.07.28.1.19.05.28.08.19.05.29.07a2.931 2.931 0 00.29.05c.1.02.2.03.3.05s.2.02.29.02a1.355 1.355 0 00.2.02.918.918 0 01-.28.53 1.022 1.022 0 01-1.02.24 1.011 1.011 0 00-1.26.73 2.6 2.6 0 01-.21.55 2.036 2.036 0 01-.36.46 2.224 2.224 0 01-2.37.47 1.006 1.006 0 00-1.28.51 1.876 1.876 0 01-.43.61 2.223 2.223 0 01-.78.48h-.01a2.208 2.208 0 01-2.29-.48zm21.33 21.18l-.08.69a.518.518 0 01-.51.45H27.1a.5.5 0 01-.5-.46c-.67-9.52-5.32-18.59-10.24-20.88.08.01.16.01.23.02a1.248 1.248 0 01.21.02 2.715 2.715 0 00.29-.01h.21a2.7 2.7 0 00.28-.04 1.355 1.355 0 00.2-.02c.1-.02.19-.05.28-.07.07-.02.13-.03.2-.05.09-.03.18-.07.27-.1a1.336 1.336 0 00.18-.07c.1-.05.2-.1.29-.15.05-.02.1-.05.15-.07a4.047 4.047 0 00.34-.23c.02-.02.05-.03.07-.05a3.9 3.9 0 00.38-.33 3.833 3.833 0 00.28-.29 28.894 28.894 0 016.91 12.7 1.009 1.009 0 001.98-.15c.03-.38.83-8.6-.37-14.79.07.01.14.01.21.02a3.859 3.859 0 00.49.06c.11.01.22.02.32.02s.2.02.29.02c.06 0 .11-.01.17-.01.11-.01.22-.01.34-.02.15-.01.3-.02.45-.04.1-.02.21-.03.31-.05.17-.03.33-.06.49-.1.05-.02.1-.02.16-.04a29.443 29.443 0 01-.81 10.6.982.982 0 00.65 1.21 1.018 1.018 0 001.26-.6 41.6 41.6 0 015.38-9.86c.01.02.03.03.04.05a2.5 2.5 0 00.39.47.01.01 0 00.01.01 2.862 2.862 0 00.43.35l.01.01c.08.05.17.08.25.13a2.1 2.1 0 00.26.13c.04.02.09.03.14.05a2.643 2.643 0 00.4.12 3.429 3.429 0 00.56.07 5.149 5.149 0 00.37.58c-6.61 2.39-8.09 15.96-8.6 20.7zm23.31-28.71a3.369 3.369 0 01-1.78.9.989.989 0 00-.79 1.26 2.6 2.6 0 01-.69 2.6 2.819 2.819 0 01-2.39.74 1.015 1.015 0 00-1.09.62 3.307 3.307 0 01-.81 1.21 3.688 3.688 0 01-4.51.47h-.01a4.163 4.163 0 01-.6-.47 3.429 3.429 0 01-.84-1.31 1.14 1.14 0 00-.18-.3.462.462 0 01-.07-.07 1.33 1.33 0 00-.19-.14.536.536 0 00-.11-.05.864.864 0 00-.21-.07.5.5 0 00-.12-.02c-.02 0-.05-.01-.07-.01a.824.824 0 00-.26.04.615.615 0 01-.13.01 1.03 1.03 0 01-.75-.17 1.014 1.014 0 01-.13-.09.98.98 0 01-.17-.23c-.01-.02-.01-.04-.02-.06a.864.864 0 01-.07-.21.986.986 0 01.02-.45.277.277 0 00.03-.13 4.965 4.965 0 00.9-.27c.09-.04.16-.08.24-.12a5.862 5.862 0 00.61-.32c.1-.07.19-.14.28-.21a5.9 5.9 0 00.47-.37l.26-.26a5.071 5.071 0 00.37-.44 2.112 2.112 0 00.21-.31 4.212 4.212 0 00.29-.51c.05-.11.11-.21.15-.32a6.4 6.4 0 00.2-.62 2.627 2.627 0 00.08-.3 5.145 5.145 0 00.1-.97 5.014 5.014 0 00-.09-.95 5.116 5.116 0 002.42-4.33 4.956 4.956 0 00-.38-1.9 3.563 3.563 0 001.16-2.62 3.359 3.359 0 00-.08-.71 1.655 1.655 0 00-.06-.21c-.05-.15-.09-.31-.15-.45l-.12-.24c-.07-.13-.14-.25-.22-.37a1.952 1.952 0 00-.17-.23c-.06-.07-.1-.14-.16-.2a2.811 2.811 0 013.51.31 2.56 2.56 0 01.76 1.46 1.01 1.01 0 00.41.65 1.078 1.078 0 00.76.17 3.4 3.4 0 012.97.89 3.14 3.14 0 01.63 3.66.976.976 0 00.28 1.23 3.876 3.876 0 01.31.26 3.129 3.129 0 010 4.53z" fill="#4b811b" fill-rule="evenodd"/></svg>