<svg xmlns="http://www.w3.org/2000/svg" width="57" height="49" viewBox="0 0 57 49">
  <defs>
    <style>
      .cls-1 {
        fill: #8eaa41;
        fill-rule: evenodd;
      }
    </style>
  </defs>
  <path id="Forma_1" data-name="Forma 1" class="cls-1" d="M926.149,2584.29l0-4.45a2.606,2.606,0,0,0,.618-0.1,2.982,2.982,0,0,0,2.013-1.87,3.733,3.733,0,0,0,.212-1.46,3.864,3.864,0,0,0-3.957-3.56h-0.069a25.306,25.306,0,0,0-48.937,0h-0.069a3.864,3.864,0,0,0-3.956,3.56,3.733,3.733,0,0,0,.212,1.46,2.978,2.978,0,0,0,2.013,1.87,2.622,2.622,0,0,0,.62.1v4.45a3.743,3.743,0,0,0,0,7.27v5.78a5.682,5.682,0,0,0,5.7,5.66h39.9a5.682,5.682,0,0,0,5.7-5.66v-5.78A3.743,3.743,0,0,0,926.149,2584.29ZM900.5,2555.88a23.424,23.424,0,0,1,22.518,16.97H877.982A23.424,23.424,0,0,1,900.5,2555.88Zm-25.739,22.06a1.113,1.113,0,0,1-.752-0.7,1.817,1.817,0,0,1-.105-0.73,2.009,2.009,0,0,1,2.058-1.78h49.076a2.009,2.009,0,0,1,2.058,1.78,1.834,1.834,0,0,1-.105.73,1.113,1.113,0,0,1-.752.7,1.6,1.6,0,0,1-1.011-.08l-0.081-.03a1.459,1.459,0,0,1-.272-0.16l-0.04-.03c-0.008,0-.017-0.01-0.025-0.01a5.464,5.464,0,0,0-.537-0.36c-0.049-.03-0.1-0.05-0.15-0.08a6.234,6.234,0,0,0-.6-0.27h0a4.949,4.949,0,0,0-2.641-.21,4.643,4.643,0,0,0-3.159,2.27,2.773,2.773,0,0,1-2.359,1.4h-0.006a3.882,3.882,0,0,1-.481-0.05,3.034,3.034,0,0,1-2.169-1.39,4.5,4.5,0,0,0-.372-0.51,4.289,4.289,0,0,0-.386-0.42,0.16,0.16,0,0,1-.034-0.04,4.874,4.874,0,0,0-3.321-1.34c-0.015,0-.03-0.01-0.045-0.01h-0.132a4.646,4.646,0,0,0-4,2.36c-0.493.88-2.38,1.4-3.92,1.4a6.557,6.557,0,0,1-.767-0.04c-0.031,0-.063-0.01-0.095-0.01a6.285,6.285,0,0,1-2.43-.75,1.822,1.822,0,0,1-.628-0.6,4.646,4.646,0,0,0-4-2.36h-0.123c-0.114,0-.224.01-0.335,0.02a1.7,1.7,0,0,0-.226.01c-0.147.02-.291,0.05-0.435,0.08l-0.183.03c-0.142.04-.279,0.08-0.417,0.13l-0.181.06c-0.126.05-.246,0.11-0.366,0.17a1.721,1.721,0,0,0-.2.1,2.267,2.267,0,0,0-.306.19c-0.074.05-.151,0.09-0.223,0.14-0.087.07-.168,0.14-0.251,0.21s-0.158.13-.232,0.19c-0.075.08-.143,0.16-0.214,0.23s-0.15.16-.219,0.24c-0.091.11-.171,0.23-0.253,0.35-0.041.06-.086,0.11-0.124,0.17l0,0.01a3.222,3.222,0,0,1-.431.53c-0.036.04-.072,0.07-0.109,0.11a2.6,2.6,0,0,1-.481.36h0a1.491,1.491,0,0,1-.183.1,2.974,2.974,0,0,1-.5.2l-0.025.01c-0.049.01-.1,0.03-0.157,0.04a2.967,2.967,0,0,1-.6.07l-0.019.01c-0.079,0-.159-0.01-0.238-0.01-0.028-.01-0.054-0.01-0.082-0.02h-0.023a2.78,2.78,0,0,1-2-1.37,4.645,4.645,0,0,0-3.159-2.27,5.1,5.1,0,0,0-1.1-.09,4.84,4.84,0,0,0-3.017,1.02A1.642,1.642,0,0,1,874.761,2577.94Zm36.86,6.49a0.944,0.944,0,0,0-.671-0.28h-13.3v-2.32c0.065,0.02.131,0.03,0.2,0.05,0.184,0.05.367,0.11,0.55,0.15h0.043a10.211,10.211,0,0,0,2.061.24h0.162c1.577,0,4.528-.5,5.579-2.37a2.741,2.741,0,0,1,2.3-1.39,3.941,3.941,0,0,1,.485.06,1.667,1.667,0,0,1,.222.03,3,3,0,0,1,1.313.7c0.007,0.01.016,0.01,0.023,0.02a2.951,2.951,0,0,1,.513.62,4.9,4.9,0,0,0,4.29,2.33c0.016,0,.032-0.01.048-0.01a4.692,4.692,0,0,0,4.109-2.36,2.744,2.744,0,0,1,2.422-1.39h0a3.925,3.925,0,0,1,.484.06l0.222,0.06a2.115,2.115,0,0,1,.34.12c0.059,0.03.118,0.05,0.175,0.08a2.932,2.932,0,0,1,.477.29,3.45,3.45,0,0,0,.59.38l0,4.65h-7.6a0.944,0.944,0,0,0-.672.28,0.93,0.93,0,0,0-.278.66v6.6a1.9,1.9,0,0,1-3.8,0v-6.6A0.939,0.939,0,0,0,911.621,2584.43ZM910,2586.04v3.77H897.65v-3.77H910Zm-19-1.89a0.947,0.947,0,0,0-.95.95,1.9,1.9,0,0,1-3.8,0v-2.86a4.3,4.3,0,0,0,.869-0.18h0.011a0.5,0.5,0,0,0,.107-0.04h0.008a3.657,3.657,0,0,0,.442-0.17H887.7c0.057-.03.114-0.05,0.164-0.08a0.093,0.093,0,0,0,.046-0.02c0.106-.05.209-0.11,0.311-0.17,0.028-.02.052-0.03,0.083-0.05l0.143-.09,0.048-.03c0.089-.07.174-0.13,0.259-0.2,0.031-.03.054-0.04,0.087-0.07,0.051-.04.1-0.08,0.149-0.12,0.014-.01.028-0.03,0.042-0.04,0.036-.03.07-0.07,0.106-0.1,0.068-.07.14-0.14,0.222-0.23a1.372,1.372,0,0,0,.117-0.13l0.011-.01a5.06,5.06,0,0,0,.415-0.57,3.073,3.073,0,0,1,2.632-1.44,2.783,2.783,0,0,1,2.383,1.4,3.563,3.563,0,0,0,.423.57,2.732,2.732,0,0,0,.237.22c0.058,0.06.106,0.11,0.169,0.17v13.66a1.9,1.9,0,0,1-3.8,0v-9.42A0.953,0.953,0,0,0,891,2584.15Zm-6.649-2.08v2.08h-7.6v-4.58a3.6,3.6,0,0,0,.749-0.45,2.986,2.986,0,0,1,1.7-.61,2.5,2.5,0,0,1,.546.05,2.723,2.723,0,0,1,1.874,1.34A4.614,4.614,0,0,0,884.351,2582.07Zm-8.55,7.74a1.885,1.885,0,1,1,0-3.77h8.673c0.037,0.12.081,0.25,0.131,0.37,0.023,0.06.038,0.12,0.064,0.18a3.355,3.355,0,0,0,.324.59c0.029,0.04.064,0.08,0.093,0.12a3.419,3.419,0,0,0,.336.4c0.056,0.06.117,0.11,0.176,0.17a2.806,2.806,0,0,0,.341.27,2.211,2.211,0,0,0,.217.15c0.122,0.07.25,0.14,0.38,0.2a2.189,2.189,0,0,0,.236.11c0.147,0.05.3,0.1,0.45,0.14,0.073,0.01.144,0.04,0.219,0.05a3.723,3.723,0,0,0,2.613-.43v1.45H875.8Zm48.448,7.53a3.8,3.8,0,0,1-3.8,3.78h-39.9a3.8,3.8,0,0,1-3.8-3.78v-5.65h13.3v2.83a3.8,3.8,0,0,0,7.6,0v-2.83H910a3.8,3.8,0,0,0,7.6,0h6.65v5.65h0Zm0.95-7.53h-7.6v-3.77h7.6A1.885,1.885,0,1,1,925.2,2589.81Zm-30.12-30.82-1.9,1.88a0.945,0.945,0,1,0,1.343,1.33l1.9-1.88a0.94,0.94,0,0,0,0-1.33A0.954,0.954,0,0,0,895.079,2558.99Zm23.47,40.24a0.944,0.944,0,0,0,.672-0.28l1.9-1.88a0.936,0.936,0,0,0,0-1.33,0.95,0.95,0,0,0-1.342,0l-1.9,1.88a0.95,0.95,0,0,0-.279.67,0.91,0.91,0,0,0,.279.66A0.942,0.942,0,0,0,918.549,2599.23Zm-34.87-4.44-1.9,1.89a0.939,0.939,0,0,0-.251.91,0.951,0.951,0,0,0,1.594.42l1.9-1.88a0.939,0.939,0,0,0,0-1.33A0.956,0.956,0,0,0,883.679,2594.79Zm16.149-28.26-1.9,1.88a0.945,0.945,0,1,0,1.344,1.33l1.9-1.88A0.945,0.945,0,0,0,899.828,2566.53Zm5.144-5.66a0.956,0.956,0,0,0-1.339.01,0.928,0.928,0,0,0,0,1.32l1.9,1.89a0.965,0.965,0,0,0,1.339,0,0.939,0.939,0,0,0,0-1.33Zm-17.1,3.77a0.954,0.954,0,0,0-1.338.01,0.926,0.926,0,0,0,0,1.32l1.9,1.89a0.956,0.956,0,0,0,1.339-.01,0.927,0.927,0,0,0,0-1.32Zm16.149,30.15a0.954,0.954,0,0,0-1.338.01,0.94,0.94,0,0,0,0,1.33l1.9,1.88a0.956,0.956,0,0,0,1.339,0,0.939,0.939,0,0,0,0-1.33Zm8.55-29.21a0.956,0.956,0,0,0-1.339.01,0.939,0.939,0,0,0,0,1.33l1.9,1.88a0.964,0.964,0,0,0,1.338,0,0.938,0.938,0,0,0,0-1.33Z" transform="translate(-872 -2554)"/>
</svg>
