<svg xmlns="http://www.w3.org/2000/svg" width="52.91" height="56.66" viewBox="0 0 52.91 56.66">
  <defs>
    <style>
      .cls-1 {
        fill: #f2374d;
        fill-rule: evenodd;
      }
    </style>
  </defs>
  <path id="Forma_1" data-name="Forma 1" class="cls-1" d="M1085.37,2564.6a4.226,4.226,0,0,0,3-1.25,1,1,0,0,0-1.42-1.42,2.239,2.239,0,0,1-3.16,0,1,1,0,0,0-1.41,0,1.008,1.008,0,0,0,0,1.42A4.2,4.2,0,0,0,1085.37,2564.6Zm4.91,30.78a1,1,0,1,0-1.82.85l2.77,5.94a0.993,0.993,0,0,0,.91.58,1.059,1.059,0,0,0,.42-0.09,1.008,1.008,0,0,0,.48-1.34Zm25.34-.49a1,1,0,0,0-1.33.49l-2.77,5.94a1,1,0,0,0,.91,1.43,0.993,0.993,0,0,0,.91-0.58l2.76-5.94A1.008,1.008,0,0,0,1115.62,2594.89Zm-8.57,2.03a1,1,0,0,0-1.14.84l-0.93,5.94a1.013,1.013,0,0,0,.84,1.15,0.808,0.808,0,0,0,.16.01,0.989,0.989,0,0,0,.98-0.85l0.93-5.94A1.007,1.007,0,0,0,1107.05,2596.92Zm-9.53,0a1.007,1.007,0,0,0-.84,1.15l0.92,5.94a1.007,1.007,0,0,0,.99.85,0.86,0.86,0,0,0,.16-0.01,1.006,1.006,0,0,0,.83-1.15l-0.92-5.94A1,1,0,0,0,1097.52,2596.92Zm4.77-23.3a41.866,41.866,0,0,0,11.92-1.61,1.008,1.008,0,0,0-.58-1.93,39.654,39.654,0,0,1-11.35,1.53A1.005,1.005,0,0,0,1102.29,2573.62Zm-18.38,7.55a26.131,26.131,0,0,0,3.18,1.4,0.829,0.829,0,0,0,.34.07,1.014,1.014,0,0,0,.35-1.96,23.1,23.1,0,0,1-2.95-1.3,1,1,0,0,0-1.35.43A1.02,1.02,0,0,0,1083.91,2581.17Zm12.04,3.46a50.392,50.392,0,0,0,12.74-.07,1,1,0,0,0-.26-1.99,49.17,49.17,0,0,1-12.24.06,0.993,0.993,0,0,0-1.11.87A1.006,1.006,0,0,0,1095.95,2584.63Zm17.21-1.9a1,1,0,0,0,.96.74,0.842,0.842,0,0,0,.27-0.04,29.051,29.051,0,0,0,5.89-2.27,1.008,1.008,0,0,0,.42-1.36,1,1,0,0,0-1.35-.42,27.337,27.337,0,0,1-5.49,2.11A1.009,1.009,0,0,0,1113.16,2582.73Zm13.84,2.14c0-2.33-1.25-4.57-3.63-6.51a6.088,6.088,0,0,0,.1-1.13c0-2.96-2.04-5.72-5.78-7.82-0.08-2.05-.7-8.64-4.9-12.49a11.311,11.311,0,0,0-9.16-2.71,1.007,1.007,0,0,0-.8.55,1.034,1.034,0,0,0,.05.98c0.63,1.03,1.74,3.53,1.13,4.65a2.136,2.136,0,0,1-1.98.74,31.978,31.978,0,0,0-7.37.91,9.875,9.875,0,0,0-1.03-1.23,10.544,10.544,0,0,0-8.45-3.19,7.758,7.758,0,0,0-2.04-2.48c-2.01-1.59-4.77-2.13-8.22-1.6a1.007,1.007,0,0,0,.31,1.99c2.86-.44,5.1-0.04,6.66,1.18a5.7,5.7,0,0,1,1.24,1.39,7.7,7.7,0,0,0-2.81,1.79l-0.92.92c-3.42,3.44-3,9.45.92,13.39a9.451,9.451,0,0,0,.75.67,6.443,6.443,0,0,0-.47,2.36,6.1,6.1,0,0,0,.11,1.13c-2.38,1.94-3.63,4.17-3.63,6.51a7.455,7.455,0,0,0,1.94,4.85l3.78,9.36,0.05,0.1c3.18,5.9,5.87,7.4,11.69,9.64a23.009,23.009,0,0,0,7.75,1.18,22.765,22.765,0,0,0,7.73-1.18c5.84-2.27,8.52-3.76,11.65-9.54l4.86-11.98h-0.01A6.532,6.532,0,0,0,1127,2584.87Zm-46.18-22.63,0.91-.92a5.818,5.818,0,0,1,2.21-1.37,5.371,5.371,0,0,1,.15.71,1,1,0,0,0,1,.92h0.08a1.007,1.007,0,0,0,.91-1.09,5.136,5.136,0,0,0-.16-0.9c0.08,0,.15-0.02.22-0.02a8.72,8.72,0,0,1,6.08,2.67,7.4,7.4,0,0,1,1.12,1.45v0.01a7.467,7.467,0,0,1,1.03,3.45c0,0.04.01,0.09,0.01,0.14a6.7,6.7,0,0,1-.05,1.1c0,0.04-.01.08-0.01,0.12a7.526,7.526,0,0,1-.64,2.17l-0.06.12a7.739,7.739,0,0,1-.56.96,1.47,1.47,0,0,1-.1.13,7.76,7.76,0,0,1-.74.89,7.961,7.961,0,0,1-.95.79,0.555,0.555,0,0,1-.08.06,8.322,8.322,0,0,1-1.04.61,0.142,0.142,0,0,0-.06.02,7.488,7.488,0,0,1-3.58.68,0.22,0.22,0,0,0-.08-0.01,7.563,7.563,0,0,1-1.16-.18l-0.11-.03a6.826,6.826,0,0,1-1.13-.38,0.106,0.106,0,0,1-.05-0.02,7.546,7.546,0,0,1-1.11-.61h-0.01a7.137,7.137,0,0,1-1.13-.94C1078.59,2569.62,1078.18,2564.89,1080.82,2562.24Zm1.6,17.33a1,1,0,0,0,.37-1.09,4.57,4.57,0,0,1-.19-1.25,4.171,4.171,0,0,1,.2-1.24,2.14,2.14,0,0,0,.22.1,9.343,9.343,0,0,0,1.66.59l0.25,0.06c0.17,0.04.34,0.07,0.51,0.1,0.1,0.01.2,0.03,0.3,0.04l0.51,0.06c0.09,0,.19.01,0.28,0.01,0.15,0.01.3,0.02,0.45,0.02a9.6,9.6,0,0,0,1.42-.11,0.5,0.5,0,0,1,.12-0.02c0.21-.04.43-0.08,0.64-0.13,0.02-.01.04-0.01,0.06-0.02a9.222,9.222,0,0,0,1.98-.73,0.142,0.142,0,0,0,.04-0.02c0.16-.08.32-0.17,0.48-0.26,0.09-.06.18-0.11,0.26-0.16,0.13-.09.26-0.17,0.38-0.26s0.25-.18.38-0.27c0.09-.08.18-0.14,0.27-0.22,0.21-.18.42-0.37,0.62-0.57a8.545,8.545,0,0,0,.84-0.98,1.768,1.768,0,0,0,.16-0.22,9.4,9.4,0,0,0,1.19-2.26l0.06-.18a9.323,9.323,0,0,0,.48-2.47c0.01-.1.01-0.19,0.02-0.28s0.01-.2.01-0.3a9.472,9.472,0,0,0-.28-2.27c-0.01-.03-0.01-0.06-0.02-0.09a9.849,9.849,0,0,0-.42-1.3,30.851,30.851,0,0,1,6.38-.71c1.83-.02,3.08-0.62,3.71-1.78,0.88-1.6.22-3.78-.42-5.22a8.907,8.907,0,0,1,6.1,2.26c4.25,3.89,4.27,11.54,4.27,11.62a0.99,0.99,0,0,0,.54.89c3.37,1.77,5.22,4.01,5.22,6.32a4.551,4.551,0,0,1-.18,1.25,1,1,0,0,0,.36,1.09c1.53,1.14,3.35,2.98,3.35,5.29a4.689,4.689,0,0,1-.14,1.11c-0.02-.01-0.05-0.01-0.07-0.02a4.2,4.2,0,0,0-.8-0.28c-0.04-.01-0.07-0.01-0.1-0.02a4.816,4.816,0,0,0-.86-0.1h-0.06a5.816,5.816,0,0,0-.92.08c-0.06.01-.12,0.02-0.19,0.03a7.307,7.307,0,0,0-.94.25c-0.06.02-.12,0.05-0.18,0.07a8.772,8.772,0,0,0-.97.41c-0.02.01-.05,0.02-0.07,0.03-0.34.18-.69,0.38-1.04,0.6-0.08.05-.15,0.09-0.22,0.14-0.34.23-.69,0.48-1.04,0.75-0.07.05-.14,0.11-0.21,0.16-0.37.3-.74,0.61-1.12,0.96-2.66-1.82-6.37-.61-9.15,1.8a7.5,7.5,0,0,0-9.14,0c-0.21-.18-0.42-0.35-0.64-0.52l-0.2-.14c-0.16-.12-0.33-0.24-0.5-0.35-0.07-.04-0.13-0.09-0.2-0.13-0.23-.14-0.46-0.28-0.7-0.41h0c-0.24-.13-0.48-0.24-0.72-0.35-0.07-.03-0.13-0.06-0.2-0.09-0.19-.08-0.37-0.15-0.55-0.21a1.723,1.723,0,0,0-.21-0.07,6.676,6.676,0,0,0-.73-0.21h0a6.6,6.6,0,0,0-.73-0.13,1.355,1.355,0,0,0-.2-0.02c-0.19-.02-0.37-0.03-0.55-0.04-0.04,0-.09-0.01-0.13-0.01-0.02,0-.05.01-0.07,0.01a5.572,5.572,0,0,0-1.41.19l-0.18.06a3.024,3.024,0,0,0-.5.19c-0.06.02-.12,0.05-0.19,0.08a4.332,4.332,0,0,0-.62.36c-0.24-.22-0.48-0.43-0.71-0.63-0.08-.06-0.15-0.12-0.23-0.18-0.16-.13-0.32-0.26-0.48-0.38-0.08-.07-0.17-0.13-0.26-0.2l-0.43-.31c-0.09-.06-0.19-0.12-0.28-0.18-0.13-.09-0.27-0.18-0.41-0.26-0.09-.05-0.18-0.11-0.27-0.16-0.14-.08-0.27-0.15-0.41-0.22-0.09-.05-0.18-0.1-0.26-0.14-0.14-.07-0.27-0.12-0.41-0.18a2.718,2.718,0,0,0-.25-0.11c-0.14-.06-0.28-0.11-0.41-0.16-0.08-.02-0.15-0.05-0.23-0.07-0.16-.05-0.31-0.09-0.47-0.13-0.05-.01-0.1-0.03-0.15-0.04a4.555,4.555,0,0,0-.61-0.1,0.41,0.41,0,0,0-.11-0.01,3.829,3.829,0,0,0-.47-0.03c-0.07,0-.14.01-0.2,0.01-0.13,0-.25.01-0.37,0.02l-0.21.03-0.33.06-0.21.06a2.811,2.811,0,0,0-.31.1,1.192,1.192,0,0,0-.2.08c-0.1.05-.2,0.09-0.3,0.15a1.738,1.738,0,0,0-.19.1,0.929,0.929,0,0,1-.1.05,4.729,4.729,0,0,1-.2-1.34C1079.08,2582.55,1080.9,2580.71,1082.42,2579.57Zm37.46,18.8c-2.82,5.19-5.02,6.42-10.58,8.57-3.52,1.37-10.48,1.37-14.04,0-5.54-2.13-7.75-3.36-10.63-8.67l-3.81-9.44h0l-0.39-.95c2.48-1.41,6.52,2.39,7.36,3.22l0.7,0.69,0.71-.69c2.21-2.2,5.91-.13,7.86,1.8l0.71,0.7,0.7-.7a5.5,5.5,0,0,1,7.77,0l0.7,0.7,0.71-.7c1.78-1.78,5.04-3.68,7.25-2.22a3.274,3.274,0,0,1,.51.41l0.71,0.71,0.7-.71h0.01c0.11-.11.27-0.27,0.48-0.46a0.265,0.265,0,0,1,.06-0.05c0.08-.08.17-0.16,0.27-0.25,0.05-.04.09-0.08,0.14-0.12,0.08-.07.16-0.14,0.25-0.21l0.19-.16c0.08-.07.16-0.13,0.24-0.2l0.24-.18,0.24-.18c0.09-.07.18-0.13,0.27-0.19a2.2,2.2,0,0,1,.25-0.17c0.09-.06.19-0.13,0.28-0.19s0.17-.1.26-0.16,0.2-.11.3-0.17,0.17-.1.26-0.14,0.2-.11.3-0.15,0.19-.08.28-0.12a1.877,1.877,0,0,1,.3-0.12c0.09-.04.19-0.07,0.28-0.1s0.2-.06.29-0.08,0.21-.04.31-0.06a2.024,2.024,0,0,1,.26-0.04c0.11-.01.23-0.01,0.35-0.01a1.205,1.205,0,0,1,.19,0,2.239,2.239,0,0,1,1.01.3Z" transform="translate(-1074.09 -2553.34)"/>
</svg>
