<svg xmlns="http://www.w3.org/2000/svg" width="51.469" height="51.31" viewBox="0 0 51.469 51.31">
  <defs>
    <style>
      .cls-1 {
        fill: #ff6262;
        fill-rule: evenodd;
      }
    </style>
  </defs>
  <path id="Forma_1" data-name="Forma 1" class="cls-1" d="M323.166,2567.54c-1.833-4.55-5.251-10.46-11.136-12.81-4.317-1.73-9.319-1.32-14.867,1.23-6.936,3.18-9.2,8.88-6.386,16.06a6.58,6.58,0,0,1-.889,6.5,6.508,6.508,0,0,1-6.065,2.45c-3.768-.5-6.659.35-8.365,2.46-1.307,1.62-2.463,4.7-.557,10.22l0.036,0.09a20.848,20.848,0,0,0,11.921,10.17,23.984,23.984,0,0,0,5.564.94l0.291,0.02c0.612,0.06,1.669.13,3.041,0.13a37.592,37.592,0,0,0,14.169-2.67,23.79,23.79,0,0,0,14.708-17.19A28.824,28.824,0,0,0,323.166,2567.54Zm-0.467,17.13a21.867,21.867,0,0,1-13.536,15.81,36.363,36.363,0,0,1-16.274,2.4l-0.291-.02a22.709,22.709,0,0,1-5.115-.85,19.231,19.231,0,0,1-10.723-9.07c-1.234-3.6-1.149-6.53.239-8.25,1.248-1.54,3.518-2.14,6.563-1.74a8.46,8.46,0,0,0,7.893-3.2,8.58,8.58,0,0,0,1.169-8.47c-2.44-6.21-.636-10.75,5.363-13.5,5.037-2.31,9.515-2.71,13.308-1.19,5.233,2.09,8.341,7.52,10.029,11.7A26.826,26.826,0,0,1,322.7,2584.67Zm-15.562-12.45a5,5,0,1,0-4.967-5A4.994,4.994,0,0,0,307.137,2572.22Zm0-8a3,3,0,1,1-2.98,3A2.991,2.991,0,0,1,307.137,2564.22Zm14.232,13.45a25.864,25.864,0,0,0-1.874-8.55c-4.313-10.69-11.4-13.94-21.014-9.53-1.925.88-7.783,3.57-4.615,11.63a9.229,9.229,0,0,1-9.793,12.62c-2.618-.35-4.582.17-5.488,1.46-0.961,1.36-.952,3.71.026,6.63l0.058,0.14a17.147,17.147,0,0,0,9.625,8.04,20.723,20.723,0,0,0,4.675.77l0.281,0.02c0.843,0.08,1.747.12,2.688,0.12,18.768,0,23.616-11.75,24.829-16.8a23.6,23.6,0,0,0,.61-6.37A0.836,0.836,0,0,0,321.369,2577.67Zm-22.064-16.26a16.733,16.733,0,0,1,6.889-1.74c4.871,0,8.727,3.43,11.46,10.2a24.305,24.305,0,0,1,1.587,6.15c-4.45-1.26-12.331,2.67-13.647,3.35-5.942,1.9-8.694-.83-9.449-1.79a11.307,11.307,0,0,0-.432-7.09C293.534,2564.94,296.306,2562.78,299.305,2561.41Zm-4.71,19.6a12.827,12.827,0,0,0,.785-1.37,9.22,9.22,0,0,0,6.411,2.38,14.526,14.526,0,0,0,4.492-.77,0.952,0.952,0,0,0,.153-0.07c3.913-2.05,10.695-4.54,12.972-2.92a21.481,21.481,0,0,1-.571,5.49c-0.01.04-.022,0.08-0.032,0.12-2.164-.61-7.412-1.23-16.072,2.95-2.962,1.43-5.519,1.71-7.6.83a7.514,7.514,0,0,1-3.635-3.59A11.364,11.364,0,0,0,294.6,2581.01Zm-1.167,17.9-0.282-.02a19.226,19.226,0,0,1-4.229-.68,15.324,15.324,0,0,1-8.447-6.99c-0.852-2.58-.7-4.15-0.264-4.77s1.826-.86,3.608-0.63a11.108,11.108,0,0,0,5.7-.73c0.059,0.33.122,0.7,0.179,1.09a12.739,12.739,0,0,0,5.293,8.6c2.044,1.41,3.426,2.69,3.489,4.15-0.818.05-1.658,0.09-2.542,0.09S294.211,2598.98,293.428,2598.91Zm7.039-.16c-0.16-2.71-2.819-4.56-4.348-5.62a10.617,10.617,0,0,1-3.842-4.91,8.257,8.257,0,0,0,2.065,1.27c2.632,1.12,5.743.83,9.251-.86,8.136-3.93,12.892-3.32,14.631-2.84C316.572,2590.36,312.157,2597.31,300.467,2598.75Z" transform="translate(-273.906 -2553.69)"/>
</svg>
