<svg xmlns="http://www.w3.org/2000/svg" width="23.156" height="15.75" viewBox="0 0 23.156 15.75">
  <defs>
    <style>
      .cls-1 {
        fill: #535353;
        fill-rule: evenodd;
      }
    </style>
  </defs>
  <path class="cls-1" d="M828.521,8078.66a0.147,0.147,0,0,1-.044-0.04,4.23,4.23,0,0,0-3.053-1.06l-0.036-.08a0.021,0.021,0,0,1,.021-0.01,3.8,3.8,0,0,0,1.877-.71,0.234,0.234,0,0,0-.246-0.34,5.892,5.892,0,0,0-1.465.33c0.556-.33.773-0.57,0.65-0.69a3.027,3.027,0,0,0-1.762.79,0.864,0.864,0,0,0,.261-0.6,5.387,5.387,0,0,0-.78.61,11.821,11.821,0,0,0-1.133,1.35l-0.015.04a11.433,11.433,0,0,0-1.573,3.39l-0.116.08-0.021.02a5.935,5.935,0,0,0-1.624-1.31,20.376,20.376,0,0,0-2.671-1.31,23.728,23.728,0,0,0-3.4-1.33,3.137,3.137,0,0,0,1.87,2.83v0.03a4.2,4.2,0,0,0-1.278.17c0.079,1.11.924,1.87,2.526,2.29l-0.007.02a1.9,1.9,0,0,0-1.552.59,2.814,2.814,0,0,0,2.808,1.38,2.044,2.044,0,0,0-.613.42,0.837,0.837,0,0,0-.246.85,1.579,1.579,0,0,0,1.574.67h0l0.043,0.05a0.037,0.037,0,0,1-.022.02,6.051,6.051,0,0,1-4.786,1.72l-0.028.02a6.3,6.3,0,0,1-3.681-1.53,11.279,11.279,0,0,0,5.269,3.85,13.339,13.339,0,0,0,7.485.17H822.8a11.889,11.889,0,0,0,6.157-3.99,7.763,7.763,0,0,0,1.466-3.02,3.122,3.122,0,0,0,2.735-1.02l-0.014-.02a5.876,5.876,0,0,1-2.462-.13v-0.13h0.008c1.335-.14,2.122-0.54,2.375-1.2a4.025,4.025,0,0,1-2.758.03A5.393,5.393,0,0,0,828.521,8078.66Z" transform="translate(-810 -8076.06)"/>
</svg>
