<svg xmlns="http://www.w3.org/2000/svg" width="52" height="54" viewBox="0 0 52 54">
  <defs>
    <style>
      .cls-1 {
        fill: #4fb1c9;
        fill-rule: evenodd;
      }
    </style>
  </defs>
  <path id="Forma_1" data-name="Forma 1" class="cls-1" d="M494.96,2578.27a1,1,0,0,0,1-1v-3.66c0-.15-0.012-0.3-0.022-0.45l0.308,0.31a1,1,0,0,0,1.411,0l0.323-.32c-0.01.15-.022,0.3-0.022,0.46v3.66a1,1,0,0,0,1,1h3.651a6.349,6.349,0,0,0,6.331-6.35v-3.66a1,1,0,0,0-1-1.01h-3.651a6.286,6.286,0,0,0-2.339.46,6.354,6.354,0,0,0-1.71-5.81l-2.582-2.59a0.98,0.98,0,0,0-1.411,0l-2.584,2.59a6.352,6.352,0,0,0-1.711,5.8,6.186,6.186,0,0,0-2.321-.45h-3.652a1,1,0,0,0-1,1v3.67a6.349,6.349,0,0,0,6.331,6.35h3.651Zm11.978-9.01v2.66a4.346,4.346,0,0,1-4.334,4.35h-2.653v-2.66a4.346,4.346,0,0,1,4.334-4.35h2.653Zm-11.866-5.95,1.876-1.88,1.877,1.88a4.366,4.366,0,0,1,0,6.15l-1.877,1.89-1.876-1.89A4.366,4.366,0,0,1,495.072,2563.31Zm-8.1,8.61v-2.66h2.653a4.347,4.347,0,0,1,4.334,4.35v2.66h-2.653A4.346,4.346,0,0,1,486.975,2571.92Zm12.976,14.14a3,3,0,0,0-3,3h2a1,1,0,1,1,2,0h2A3,3,0,0,0,499.951,2586.06Zm7.985,1a3,3,0,0,0-2.994,3h2a1,1,0,1,1,2,0h2A3,3,0,0,0,507.936,2587.06Zm7.5-3.81,3.445-12.96a1.055,1.055,0,0,0,.034-0.26,2,2,0,0,0-2-2h-2a1.984,1.984,0,0,0-1,.27V2554a1,1,0,0,0-1-1H475a1,1,0,0,0-1,1v46.08a1,1,0,0,0,.6.92l6.963,3.01a1.084,1.084,0,0,0,.395.08c0.006,0,.012-0.01.018-0.01s0.008,0.01.012,0.01h15.286a18.6,18.6,0,0,0,9.974,2.91A18.806,18.806,0,0,0,526,2588.18v-0.1C526,2585.09,519.839,2583.79,515.438,2583.25Zm-0.514-13.22h1.961l-3.674,13.83h0l-0.6,2.3a1,1,0,0,0,.715,1.22,1.083,1.083,0,0,0,.251.03,1,1,0,0,0,.965-0.75l0.377-1.45c6.813,0.81,9.082,2.39,9.082,2.87,0,0.98-5.7,3.3-16.755,3.3s-16.756-2.32-16.756-3.3,5.7-3.3,16.756-3.3c0.591,0,1.157.02,1.732,0.04l-0.187.74a1.007,1.007,0,0,0,.725,1.22,1.019,1.019,0,0,0,.244.03,1.007,1.007,0,0,0,.967-0.76l0.489-1.95h0l3.671-13.81A1.053,1.053,0,0,0,514.924,2570.03Zm-33.963,31.53-4.967-2.14V2555h4.967v46.56Zm13.664,0.52H482.988V2555h28.941v18.66l-2.433,9.15q-1.1-.03-2.246-0.03c-6.486,0-18.752,1.1-18.752,5.3v0.1a18.907,18.907,0,0,0,.1,1.96c0.019,0.19.06,0.38,0.086,0.57,0.06,0.45.12,0.9,0.212,1.33,0.052,0.25.128,0.49,0.189,0.74,0.092,0.37.179,0.74,0.293,1.1,0.091,0.28.205,0.56,0.309,0.84,0.112,0.3.219,0.61,0.347,0.91s0.282,0.6.429,0.89c0.129,0.26.253,0.53,0.393,0.78,0.167,0.3.352,0.59,0.534,0.88,0.148,0.24.294,0.48,0.452,0.7,0.193,0.28.4,0.55,0.609,0.82,0.177,0.23.355,0.46,0.543,0.68,0.206,0.24.423,0.48,0.642,0.71s0.447,0.46.68,0.69C494.426,2601.88,494.518,2601.99,494.625,2602.08Zm12.626,2.91a16.642,16.642,0,0,1-9.236-2.79c-0.126-.09-0.248-0.18-0.372-0.26-0.285-.21-0.566-0.42-0.838-0.63-0.1-.08-0.2-0.16-0.3-0.24-0.355-.3-0.7-0.61-1.027-0.94-0.061-.06-0.12-0.12-0.18-0.19-0.324-.33-0.637-0.67-0.933-1.03-0.018-.02-0.037-0.04-0.054-0.06-0.319-.39-0.62-0.79-0.9-1.21l-0.1-.15a17.1,17.1,0,0,1-1.435-2.65c-0.033-.08-0.067-0.16-0.1-0.23-0.188-.45-0.359-0.92-0.506-1.39-0.019-.06-0.034-0.12-0.052-0.18-0.13-.42-0.241-0.86-0.336-1.3-0.019-.09-0.04-0.18-0.058-0.27-0.046-.23-0.07-0.46-0.107-0.69,3.833,1.99,11.752,2.6,16.534,2.6s12.7-.61,16.534-2.6A16.776,16.776,0,0,1,507.251,2604.99Z" transform="translate(-474 -2553)"/>
</svg>
