<svg xmlns="http://www.w3.org/2000/svg" width="17.031" height="16.72" viewBox="0 0 17.031 16.72">
  <defs>
    <style>
      .cls-1 {
        fill: #535353;
        fill-rule: evenodd;
      }
    </style>
  </defs>
  <path class="cls-1" d="M875.135,8082.82v-0.03c0,0.01-.012.02-0.017,0.03h0.017Zm6.616-7.54H867.232a1.225,1.225,0,0,0-1.258,1.2v14.32a1.232,1.232,0,0,0,1.258,1.2h14.519a1.233,1.233,0,0,0,1.26-1.2v-14.32A1.226,1.226,0,0,0,881.751,8075.28Zm-10.613,13.99h-2.574v-7.55h2.574v7.55Zm-1.287-8.58h-0.017a1.317,1.317,0,0,1-1.422-1.3A1.456,1.456,0,1,1,869.851,8080.69Zm10.566,8.58h-2.574v-4.04c0-1.01-.372-1.7-1.3-1.7a1.394,1.394,0,0,0-1.32.92,1.648,1.648,0,0,0-.085.61v4.21h-2.573s0.033-6.84,0-7.55h2.573v1.07a2.572,2.572,0,0,1,2.32-1.24c1.692,0,2.962,1.08,2.962,3.4v4.32Z" transform="translate(-865.969 -8075.28)"/>
</svg>
