<svg xmlns="http://www.w3.org/2000/svg" width="58.563" height="52.84" viewBox="0 0 58.563 52.84">
  <defs>
    <style>
      .cls-1 {
        fill: #ffc243;
        fill-rule: evenodd;
      }
    </style>
  </defs>
  <path id="Forma_1" data-name="Forma 1" class="cls-1" d="M707.752,2571.22a1,1,0,1,1-1,1A1,1,0,0,1,707.752,2571.22Zm5.232-2.64a1,1,0,1,1-1,1A1,1,0,0,1,712.984,2568.58Zm-1.315,2.51a1,1,0,1,1-1,1A1,1,0,0,1,711.669,2571.09Zm-26.229-4.62a1,1,0,1,1-1,1A1,1,0,0,1,685.44,2566.47Zm5.849-1.32a1,1,0,1,1-1,1A1,1,0,0,1,691.289,2565.15Zm-3.233-1a1,1,0,1,1-1,1A1,1,0,0,1,688.056,2564.15Zm-4.873,18.33a1,1,0,1,1-1,1A1,1,0,0,1,683.183,2582.48Zm3.26-2.32a1,1,0,1,1-1,1A1,1,0,0,1,686.443,2580.16Zm1.613,2a1,1,0,1,1-1,.99A0.994,0.994,0,0,1,688.056,2582.16Zm9.346-19.95a0.7,0.7,0,0,1,.531.09,0.562,0.562,0,0,1,.26.35,2.659,2.659,0,0,0,3.162,2,0.745,0.745,0,0,1,.532.08,0.6,0.6,0,0,1,.26.36,2.53,2.53,0,0,0,1.166,1.65,2.673,2.673,0,0,0,1.427.4,2.748,2.748,0,0,0,.568-0.06,0.992,0.992,0,0,0,.778-1.17,1.007,1.007,0,0,0-1.186-.78,0.7,0.7,0,0,1-.531-0.09,0.533,0.533,0,0,1-.259-0.35,2.511,2.511,0,0,0-1.167-1.65,2.729,2.729,0,0,0-2-.35,0.642,0.642,0,0,1-.792-0.44,2.542,2.542,0,0,0-1.167-1.65,2.728,2.728,0,0,0-2-.34,1,1,0,0,0-.778,1.18A1.008,1.008,0,0,0,697.4,2562.21Zm3.967,14.11a1,1,0,0,0-.982,1.02,0.173,0.173,0,0,1-.112.19,2.149,2.149,0,0,0-2.073,2.23,0.174,0.174,0,0,1-.112.19,2.082,2.082,0,0,0-1.508.69,2.225,2.225,0,0,0-.565,1.54,1,1,0,0,0,1,.97h0.023a1,1,0,0,0,.98-1.02,0.18,0.18,0,0,1,.112-0.19,2.15,2.15,0,0,0,2.074-2.23,0.175,0.175,0,0,1,.111-0.19,2.149,2.149,0,0,0,2.074-2.23A1.006,1.006,0,0,0,701.369,2576.32Zm-7.184-3.64a0.643,0.643,0,0,1-.824.38,2.59,2.59,0,0,0-2.026-.01,2.71,2.71,0,0,0-1.44,1.42,0.991,0.991,0,0,0,.514,1.31,0.971,0.971,0,0,0,.4.09,1.015,1.015,0,0,0,.919-0.6,0.743,0.743,0,0,1,.379-0.38,0.554,0.554,0,0,1,.443,0,2.665,2.665,0,0,0,3.468-1.41,0.747,0.747,0,0,1,.379-0.38,0.6,0.6,0,0,1,.443,0,2.55,2.55,0,0,0,2.027.01,2.71,2.71,0,0,0,1.44-1.42,0.991,0.991,0,0,0-.514-1.31,1.01,1.01,0,0,0-1.322.51,0.712,0.712,0,0,1-.379.38,0.589,0.589,0,0,1-.443.01,2.553,2.553,0,0,0-2.028-.02A2.739,2.739,0,0,0,694.185,2572.68Zm34.633-3.43c-0.007-.02-0.022-0.03-0.03-0.05a18.763,18.763,0,0,0-1.062-3.1,1.448,1.448,0,0,0-.064-0.14c-2.3-5.01-6.588-8.19-11.768-10.13-0.032-.01-0.055-0.04-0.09-0.05a0.187,0.187,0,0,0-.073-0.01,40.415,40.415,0,0,0-7.015-1.82c-0.006,0-.009-0.01-0.015-0.01a1.074,1.074,0,0,0-.395-0.05,73.042,73.042,0,0,0-15.062-.65h-0.036c-0.021,0-.039.01-0.061,0.01a110.852,110.852,0,0,0-11.177,1.17,5.643,5.643,0,0,0-4.757,5.02v0.01c0,0.05-.02.1-0.024,0.15l-1.506,19.13c-1.826,1.16-5.679,4.29-4.216,9.43,0.516,1.81,1.36,2.88,2.508,3.16a0.572,0.572,0,0,1,.5.55,85.629,85.629,0,0,0-1.1,9.68,4.052,4.052,0,0,0,1.262,3.19,5.722,5.722,0,0,0,3.793,1.26c0.315,0,.532-0.02.6-0.02,0.354-.03,3.483-0.29,4.516-2.44,0.629-1.31.3-2.91-.974-4.74l16.443-6.62h0.01a4.194,4.194,0,0,0,.621.25c0.034,0.01.066,0.03,0.1,0.04a3.988,3.988,0,0,0,.789.13,3.793,3.793,0,0,0,.674,0,0.742,0.742,0,0,0,.148-0.01,4.939,4.939,0,0,0,.551-0.06l0.135-.03a4.14,4.14,0,0,0,.615-0.16,0.06,0.06,0,0,0,.04-0.01,4.1,4.1,0,0,0,1.843-1.2,3.942,3.942,0,0,0,.467-0.69,0.03,0.03,0,0,0,.01-0.02,4.419,4.419,0,0,0,.332-0.78c0-.01.007-0.01,0.01-0.02l18.833-7.59a8.671,8.671,0,0,0,4.632-4.18C730,2575.46,729.994,2572.57,728.818,2569.25Zm-2.513,2.04q-0.525-1.14-1.139-2.25l1.188-1.01a17.4,17.4,0,0,1,.7,2.49,3.722,3.722,0,0,1-.377,2.5A3.839,3.839,0,0,0,726.305,2571.29Zm-0.788-5.17-1.4,1.2a21.186,21.186,0,0,0-2.606-3.22l1.221-1.76A15.407,15.407,0,0,1,725.517,2566.12Zm-10.137-6.25,0.671-1.84a21.338,21.338,0,0,1,5.171,2.97l-1.2,1.74A21.374,21.374,0,0,0,715.38,2559.87Zm-6.93-2.18,0.587-1.68a38.018,38.018,0,0,1,5.138,1.31l-0.645,1.77A33.093,33.093,0,0,0,708.45,2557.69Zm-7.218-.83v-1.69c1.94,0.08,3.887.25,5.8,0.52l-0.582,1.66A49.528,49.528,0,0,0,701.232,2556.86ZM698,2555.1c0.407,0,.816,0,1.226.01v1.68c-1.574-.03-3.248,0-5.014.08v-1.68Q696.072,2555.1,698,2555.1Zm-11.811,2.43v-1.67c1.842-.23,3.87-0.43,6.017-0.56v1.67Q689.367,2557.15,686.189,2557.53Zm-3.906-1.13c0.593-.1,1.234-0.19,1.9-0.28v1.65c-1.488.19-3.048,0.42-4.648,0.68A3.641,3.641,0,0,1,682.283,2556.4Zm-0.542,46.27c-0.448.94-2.249,1.27-2.883,1.32a4.249,4.249,0,0,1-2.861-.72,2.076,2.076,0,0,1-.609-1.69,83.916,83.916,0,0,1,1.07-9.4,2.5,2.5,0,0,0-1.993-2.79,2.508,2.508,0,0,1-1.067-1.77c-1.174-4.13,2.227-6.58,3.743-7.44l0.46-.26,1.527-19.39a136.884,136.884,0,0,1,14.05-1.64h0.031c0.018,0,.033-0.01.051-0.01a64.3,64.3,0,0,1,13.49.45,0.129,0.129,0,0,0,.051.03,0.956,0.956,0,0,0,.33.06c0.032,0,.062-0.01.094-0.01a29.756,29.756,0,0,1,6.323,1.73,0.8,0.8,0,0,0,.246.15,0.708,0.708,0,0,0,.2.03,18.931,18.931,0,0,1,5.381,3.41,0.984,0.984,0,0,0,.277.28c0.023,0.02.048,0.02,0.072,0.04a22.351,22.351,0,0,1,4.753,7.06c0.886,1.93-1.669,3.36-1.961,3.52l-19.009,7.85-0.123.49a3.577,3.577,0,0,0-.013,1.65,7.621,7.621,0,0,1,.19,2.94l-0.023.12a2.237,2.237,0,0,1-1.118,1.61,3.166,3.166,0,0,1-1.469.32h-0.28a1.807,1.807,0,0,1-.483-0.1c-0.014,0-.028-0.01-0.042-0.01a1.472,1.472,0,0,1-.4-0.23l-0.07-.05a0.994,0.994,0,0,1-.166-0.17,4.407,4.407,0,0,1-.566-3.06l0.241-1.72-16.314,6.74c-1.868.72-2.968,1.7-3.362,3-0.418,1.37.027,2.96,1.364,4.85C681.48,2600.71,682.115,2601.89,681.741,2602.67Zm-0.306-7.09c0.2-.66.931-1.23,2.192-1.72l13.292-5.49a5.872,5.872,0,0,0,.6,2.26l-15.922,6.41A2.3,2.3,0,0,1,681.435,2595.58Zm45.605-18.64a6.767,6.767,0,0,1-3.539,3.22l-17.871,7.2a11.915,11.915,0,0,0-.3-2.18,1.569,1.569,0,0,1-.039-0.27l20.332-8.4a5.543,5.543,0,0,0,1.966-1.4A6.422,6.422,0,0,1,727.04,2576.94Zm-41.811,10.32c4.24,0,7.689-2.73,7.689-6.08a3.394,3.394,0,0,0-1.849-3.36,6.594,6.594,0,0,0-2.831-.44c-1.578,0-9.7,2.01-9.7,5.79C678.543,2587.26,681.642,2587.26,685.229,2587.26Zm3.017-7.89h0.012a4.915,4.915,0,0,1,1.941.25c0.214,0.1.713,0.34,0.713,1.56,0,2.22-2.6,4.09-5.683,4.09-4.68,0-4.68-.45-4.68-2.1C680.549,2581.4,686.7,2579.37,688.246,2579.37Zm-0.691-8.28c4.24,0,7.689-2.73,7.689-6.09a3.388,3.388,0,0,0-1.849-3.35,6.633,6.633,0,0,0-2.82-.45h-0.012c-1.577,0-9.694,2.02-9.694,5.8C680.869,2571.09,683.968,2571.09,687.555,2571.09Zm3.016-7.89h0.013a4.918,4.918,0,0,1,1.941.25c0.214,0.1.713,0.34,0.713,1.56,0,2.21-2.6,4.09-5.683,4.09-4.681,0-4.681-.45-4.681-2.1C682.874,2565.23,689.024,2563.2,690.571,2563.2Zm12.667,8.74c0,4.09,3.1,4.09,6.686,4.09,4.24,0,7.689-2.73,7.689-6.08a3.367,3.367,0,0,0-1.85-3.35,6.482,6.482,0,0,0-2.82-.45h-0.011C711.354,2566.15,703.238,2568.16,703.238,2571.94Zm9.7-3.8h0.012a4.935,4.935,0,0,1,1.944.25c0.214,0.1.713,0.34,0.713,1.56,0,2.21-2.6,4.09-5.683,4.09-4.681,0-4.681-.45-4.681-2.1C705.243,2570.17,711.393,2568.14,712.938,2568.14Z" transform="translate(-671.156 -2553.16)"/>
</svg>
