<svg xmlns="http://www.w3.org/2000/svg" width="59" height="56" viewBox="0 0 59 56">
  <defs>
    <style>
      .cls-1 {
        fill: #4b811b;
        fill-rule: evenodd;
      }
    </style>
  </defs>
  <path id="Forma_1" data-name="Forma 1" class="cls-1" d="M1293.21,2568.82a0.922,0.922,0,0,0,.36.07,1.018,1.018,0,0,0,.94-0.63,0.993,0.993,0,0,0-.57-1.29,2.864,2.864,0,0,1-1.65-3.73,2.924,2.924,0,0,1,3.77-1.64,1,1,0,0,0,1.3-.56,0.985,0.985,0,0,0-.57-1.29,4.948,4.948,0,0,0-6.37,2.77A4.843,4.843,0,0,0,1293.21,2568.82Zm29.27,3.13a0.994,0.994,0,0,0-.52,1.31,2.827,2.827,0,0,1,.05,2.21,2.877,2.877,0,0,1-1.55,1.59,2.92,2.92,0,0,1-2.23.04,2.861,2.861,0,0,1-1.6-1.53,1.02,1.02,0,0,0-1.33-.51,0.989,0.989,0,0,0-.51,1.31,4.946,4.946,0,0,0,4.51,2.92,5,5,0,0,0,1.97-.41,4.883,4.883,0,0,0,2.61-2.69,4.782,4.782,0,0,0-.08-3.73A1.014,1.014,0,0,0,1322.48,2571.95Zm-14.03-2.75a0.976,0.976,0,0,0-.37,1.35,2.893,2.893,0,0,1-3.32,4.19,2.854,2.854,0,0,1-1.76-1.35,1.011,1.011,0,0,0-1.37-.38,0.99,0.99,0,0,0-.38,1.35,4.954,4.954,0,0,0,6.71,1.85,4.844,4.844,0,0,0,2.32-2.94,4.79,4.79,0,0,0-.46-3.7A1.006,1.006,0,0,0,1308.45,2569.2Zm-8.56,1.79a4.967,4.967,0,0,0,6.57-2.26,0.993,0.993,0,0,0-.47-1.33,1.009,1.009,0,0,0-1.34.46,2.931,2.931,0,0,1-3.89,1.34,2.866,2.866,0,0,1-1.35-3.85,1,1,0,0,0-.47-1.33,1.009,1.009,0,0,0-1.34.46A4.855,4.855,0,0,0,1299.89,2570.99Zm-7.47,5.65a5,5,0,0,0,1.97.41,4.968,4.968,0,0,0,4.51-2.92,0.994,0.994,0,0,0-.52-1.31,1.006,1.006,0,0,0-1.32.51,2.849,2.849,0,0,1-1.61,1.53,2.921,2.921,0,0,1-2.23-.04,2.874,2.874,0,0,1-1.5-3.79,0.99,0.99,0,0,0-.52-1.31,1.006,1.006,0,0,0-1.32.51A4.85,4.85,0,0,0,1292.42,2576.64Zm12.66-10.45c0.16,0.01.32,0.02,0.48,0.02a4.939,4.939,0,0,0,3.12-1.11,4.847,4.847,0,0,0,.67-6.86,1.022,1.022,0,0,0-1.42-.13,1,1,0,0,0-.13,1.4,2.886,2.886,0,0,1-2.53,4.7,2.921,2.921,0,0,1-1.97-1.03,1,1,0,0,0-1.41-.14,0.989,0.989,0,0,0-.14,1.4A4.956,4.956,0,0,0,1305.08,2566.19Zm-20.58,8.97a1,1,0,0,0-.55-1.3,1.014,1.014,0,0,0-1.31.55,2.936,2.936,0,0,1-3.8,1.59,2.871,2.871,0,0,1-1.6-3.76,1,1,0,0,0-1.86-.74,4.845,4.845,0,0,0,2.71,6.34A4.938,4.938,0,0,0,1284.5,2575.16Zm42.02-2.84a5.114,5.114,0,0,0-1.32-5.25,5.36,5.36,0,0,0-3.8-1.51,4.523,4.523,0,0,0-1.09-1.66,4.831,4.831,0,0,0-4.76-1.12c0-.09.02-0.17,0.02-0.26a7.232,7.232,0,0,0-9.42-6.68,6.129,6.129,0,0,0-9.1.36,6.915,6.915,0,0,0-3.04-.7,6.743,6.743,0,0,0-6.82,6.65v0.04a6.674,6.674,0,0,0-2.59,2.13,147.6,147.6,0,0,0-10.93,2.36,5.139,5.139,0,0,0-1.57,3.7,4.621,4.621,0,0,0-3.1,4.34,4.54,4.54,0,0,0,1.4,3.28,4.76,4.76,0,0,0,1.82,1.11,5.419,5.419,0,0,0,1.65,3.85,5.623,5.623,0,0,0,3.89,1.59,4.005,4.005,0,0,0,1.21,2.57,4.209,4.209,0,0,0,2.95,1.18,4.4,4.4,0,0,0,1.19-.18c4.13,0.11,9.75,9.09,10.49,19.58a2.5,2.5,0,0,0,2.5,2.3h5.02a2.513,2.513,0,0,0,2.51-2.21l0.07-.7c1.38-12.6,4.25-19.08,8.52-19.27a5.715,5.715,0,0,0,2.7.7,5.64,5.64,0,0,0,3.96-1.6,4.94,4.94,0,0,0,.95-1.23,4.824,4.824,0,0,0,3.34-1.34,4.562,4.562,0,0,0,1.38-3.58,5.437,5.437,0,0,0,1.88-1.18A5.1,5.1,0,0,0,1326.52,2572.32Zm-37.96-8.55a0.983,0.983,0,0,0,.67-1.06,5.3,5.3,0,0,1-.03-0.57,4.743,4.743,0,0,1,4.81-4.66,4.9,4.9,0,0,1,2.77.86,1.022,1.022,0,0,0,.8.15,1.057,1.057,0,0,0,.65-0.48,4.037,4.037,0,0,1,3.54-2.03,4.078,4.078,0,0,1,3.27,1.62,1.009,1.009,0,0,0,1.21.32,5.285,5.285,0,0,1,2.11-.44,5.125,5.125,0,0,1,5.2,5.04,4.822,4.822,0,0,1-.43,1.97v0.01l-0.08.18v0.01h0v0.01c-0.02.04-.02,0.07-0.04,0.11a1.221,1.221,0,0,0-.06.26v0.06a1.032,1.032,0,0,0,.04.3c0.01,0.03.04,0.06,0.05,0.09a1.414,1.414,0,0,0,.13.24,1.126,1.126,0,0,0,.29.24,1.616,1.616,0,0,1,.88,1.42,1.642,1.642,0,0,1-.9,1.44,1,1,0,0,0-.51.63,0.981,0.981,0,0,0,.13.78,3.051,3.051,0,0,1,.5,1.67,3.164,3.164,0,0,1-1.98,2.91,0.986,0.986,0,0,0-.56,1.27,3.025,3.025,0,0,1,.21,1.1,3.215,3.215,0,0,1-3.26,3.16,2.573,2.573,0,0,1-.55-0.06,0.425,0.425,0,0,1-.11-0.02,3.207,3.207,0,0,1-.53-0.15h0a3.251,3.251,0,0,1-1.62-1.35,1.031,1.031,0,0,0-.85-0.48,0.986,0.986,0,0,0-.86.45,5.081,5.081,0,0,1-2.19,1.87c-0.13.06-.26,0.12-0.39,0.17-0.07.02-.14,0.04-0.2,0.06-0.13.04-.25,0.08-0.38,0.11a2.558,2.558,0,0,1-.27.05,3.431,3.431,0,0,1-.34.06,5.653,5.653,0,0,1-.59.04c-0.15,0-.3-0.01-0.45-0.02a0.757,0.757,0,0,0-.15-0.01c-0.16-.02-0.32-0.05-0.49-0.08-0.03-.01-0.06-0.01-0.09-0.02a5.259,5.259,0,0,1-.53-0.15c-0.01,0-.03-0.01-0.04-0.01a5.253,5.253,0,0,1-.55-0.22h0a5.2,5.2,0,0,1-1.98-1.62,1,1,0,0,0-.67-0.4,0.708,0.708,0,0,0-.14-0.01,1.014,1.014,0,0,0-.61.2,4.138,4.138,0,0,1-.84.48h-0.02a4.055,4.055,0,0,1-.79.26h-0.03a3.7,3.7,0,0,1-.8.09,3.975,3.975,0,0,1-4.04-3.9,3.805,3.805,0,0,1,.77-2.29,1,1,0,0,0-.24-1.42,4.606,4.606,0,0,1-2.08-3.83,4.913,4.913,0,0,1,.05-0.67c0.01-.06.02-0.11,0.03-0.17a3.894,3.894,0,0,1,.12-0.49c0.02-.06.04-0.12,0.06-0.17a2.906,2.906,0,0,1,.22-0.51,0.3,0.3,0,0,1,.04-0.1A4.788,4.788,0,0,1,1288.56,2563.77Zm14.33,18.26a7.287,7.287,0,0,0,1.41-1.13,5.46,5.46,0,0,0,1.45.96c0.03,0.03.06,0.07,0.1,0.11a3.687,3.687,0,0,0,.53.43,30.3,30.3,0,0,0-3.27,4.74A34.969,34.969,0,0,0,1302.89,2582.03Zm-6.52,10.45a29.891,29.891,0,0,0-5.45-8.34,3.234,3.234,0,0,0,.88-0.59,2.924,2.924,0,0,0,.88-2.01,6.891,6.891,0,0,0,.69-0.46c0.14-.06.29-0.12,0.42-0.19a7.174,7.174,0,0,0,1.7,1.3A41.326,41.326,0,0,1,1296.37,2592.48Zm-15.99-6.78a1.981,1.981,0,0,1-.56-1.99,1,1,0,0,0-.97-1.25,0.82,0.82,0,0,0-.22.02,3.66,3.66,0,0,1-3.35-.94,3.394,3.394,0,0,1-1-3.04,0.949,0.949,0,0,0-.19-0.76,1.023,1.023,0,0,0-.68-0.4,2.72,2.72,0,0,1-1.6-.75,2.586,2.586,0,0,1,0-3.74,2.7,2.7,0,0,1,1.52-.74,1.054,1.054,0,0,0,.67-0.41,1.015,1.015,0,0,0,.16-0.76,3.19,3.19,0,0,1,.91-2.85,3.413,3.413,0,0,1,3.82-.61,1.016,1.016,0,0,0,1.22-.28,2.443,2.443,0,0,1,.27-0.29,3.375,3.375,0,0,1,3.27-.82c-0.01.03-.01,0.06-0.02,0.09q-0.105.36-.18,0.72c-0.02.09-.04,0.17-0.06,0.26a6.8,6.8,0,0,0-.08,1.02,6.577,6.577,0,0,0,2.2,4.88,5.675,5.675,0,0,0-.65,2.65q0,0.3.03,0.6c0.01,0.07.02,0.13,0.03,0.2,0.02,0.13.04,0.25,0.06,0.38,0.02,0.07.04,0.15,0.06,0.23a2.988,2.988,0,0,0,.09.32,2.34,2.34,0,0,0,.09.24c0.03,0.1.07,0.2,0.11,0.3a1.627,1.627,0,0,0,.11.23c0.05,0.1.09,0.19,0.14,0.28s0.09,0.15.14,0.23,0.1,0.17.15,0.25a1.768,1.768,0,0,1,.16.22c0.06,0.07.12,0.15,0.18,0.23s0.13,0.14.19,0.2,0.13,0.15.2,0.22,0.13,0.12.2,0.18,0.14,0.13.22,0.2c0.07,0.05.14,0.11,0.22,0.16s0.15,0.12.23,0.18,0.16,0.1.24,0.14,0.17,0.1.25,0.15,0.17,0.09.25,0.13,0.18,0.09.27,0.12,0.17,0.07.26,0.11,0.19,0.07.28,0.1,0.19,0.05.28,0.08,0.19,0.05.29,0.07a2.931,2.931,0,0,0,.29.05c0.1,0.02.2,0.03,0.3,0.05s0.2,0.02.29,0.02a1.355,1.355,0,0,0,.2.02,0.918,0.918,0,0,1-.28.53,1.022,1.022,0,0,1-1.02.24,1.011,1.011,0,0,0-1.26.73,2.6,2.6,0,0,1-.21.55,2.036,2.036,0,0,1-.36.46,2.224,2.224,0,0,1-2.37.47,1.006,1.006,0,0,0-1.28.51,1.876,1.876,0,0,1-.43.61,2.223,2.223,0,0,1-.78.48h-0.01A2.208,2.208,0,0,1,1280.38,2585.7Zm21.33,21.18-0.08.69a0.518,0.518,0,0,1-.51.45h-5.02a0.5,0.5,0,0,1-.5-0.46c-0.67-9.52-5.32-18.59-10.24-20.88,0.08,0.01.16,0.01,0.23,0.02a1.248,1.248,0,0,1,.21.02,2.715,2.715,0,0,0,.29-0.01h0.21a2.7,2.7,0,0,0,.28-0.04,1.355,1.355,0,0,0,.2-0.02c0.1-.02.19-0.05,0.28-0.07,0.07-.02.13-0.03,0.2-0.05,0.09-.03.18-0.07,0.27-0.1a1.336,1.336,0,0,0,.18-0.07c0.1-.05.2-0.1,0.29-0.15,0.05-.02.1-0.05,0.15-0.07a4.047,4.047,0,0,0,.34-0.23c0.02-.02.05-0.03,0.07-0.05a3.9,3.9,0,0,0,.38-0.33,3.833,3.833,0,0,0,.28-0.29,28.894,28.894,0,0,1,6.91,12.7,1.009,1.009,0,0,0,1.98-.15c0.03-.38.83-8.6-0.37-14.79,0.07,0.01.14,0.01,0.21,0.02a3.859,3.859,0,0,0,.49.06c0.11,0.01.22,0.02,0.32,0.02s0.2,0.02.29,0.02c0.06,0,.11-0.01.17-0.01,0.11-.01.22-0.01,0.34-0.02,0.15-.01.3-0.02,0.45-0.04,0.1-.02.21-0.03,0.31-0.05,0.17-.03.33-0.06,0.49-0.1,0.05-.02.1-0.02,0.16-0.04a29.443,29.443,0,0,1-.81,10.6,0.982,0.982,0,0,0,.65,1.21,1.018,1.018,0,0,0,1.26-.6,41.6,41.6,0,0,1,5.38-9.86c0.01,0.02.03,0.03,0.04,0.05a2.5,2.5,0,0,0,.39.47,0.01,0.01,0,0,0,.01.01,2.862,2.862,0,0,0,.43.35l0.01,0.01c0.08,0.05.17,0.08,0.25,0.13a2.1,2.1,0,0,0,.26.13c0.04,0.02.09,0.03,0.14,0.05a2.643,2.643,0,0,0,.4.12,3.429,3.429,0,0,0,.56.07,5.149,5.149,0,0,0,.37.58C1303.7,2588.57,1302.22,2602.14,1301.71,2606.88Zm23.31-28.71a3.369,3.369,0,0,1-1.78.9,0.989,0.989,0,0,0-.79,1.26,2.6,2.6,0,0,1-.69,2.6,2.819,2.819,0,0,1-2.39.74,1.015,1.015,0,0,0-1.09.62,3.307,3.307,0,0,1-.81,1.21,3.688,3.688,0,0,1-4.51.47h-0.01a4.163,4.163,0,0,1-.6-0.47,3.429,3.429,0,0,1-.84-1.31,1.14,1.14,0,0,0-.18-0.3,0.462,0.462,0,0,1-.07-0.07,1.33,1.33,0,0,0-.19-0.14,0.536,0.536,0,0,0-.11-0.05,0.864,0.864,0,0,0-.21-0.07,0.5,0.5,0,0,0-.12-0.02c-0.02,0-.05-0.01-0.07-0.01a0.824,0.824,0,0,0-.26.04h0a0.615,0.615,0,0,1-.13.01,1.03,1.03,0,0,1-.75-0.17,1.014,1.014,0,0,1-.13-0.09,0.98,0.98,0,0,1-.17-0.23c-0.01-.02-0.01-0.04-0.02-0.06a0.864,0.864,0,0,1-.07-0.21,0.986,0.986,0,0,1,.02-0.45,0.277,0.277,0,0,0,.03-0.13,4.965,4.965,0,0,0,.9-0.27c0.09-.04.16-0.08,0.24-0.12a5.862,5.862,0,0,0,.61-0.32c0.1-.07.19-0.14,0.28-0.21a5.9,5.9,0,0,0,.47-0.37l0.26-.26a5.071,5.071,0,0,0,.37-0.44,2.112,2.112,0,0,0,.21-0.31,4.212,4.212,0,0,0,.29-0.51c0.05-.11.11-0.21,0.15-0.32a6.4,6.4,0,0,0,.2-0.62,2.627,2.627,0,0,0,.08-0.3,5.145,5.145,0,0,0,.1-0.97,5.014,5.014,0,0,0-.09-0.95,5.116,5.116,0,0,0,2.42-4.33,4.956,4.956,0,0,0-.38-1.9,3.563,3.563,0,0,0,1.16-2.62,3.359,3.359,0,0,0-.08-0.71,1.655,1.655,0,0,0-.06-0.21c-0.05-.15-0.09-0.31-0.15-0.45l-0.12-.24c-0.07-.13-0.14-0.25-0.22-0.37a1.952,1.952,0,0,0-.17-0.23c-0.06-.07-0.1-0.14-0.16-0.2a2.811,2.811,0,0,1,3.51.31,2.56,2.56,0,0,1,.76,1.46,1.01,1.01,0,0,0,.41.65,1.078,1.078,0,0,0,.76.17,3.4,3.4,0,0,1,2.97.89,3.14,3.14,0,0,1,.63,3.66,0.976,0.976,0,0,0,.28,1.23,3.876,3.876,0,0,1,.31.26A3.129,3.129,0,0,1,1325.02,2578.17Z" transform="translate(-1269 -2554)"/>
</svg>
